<?xml version="1.0" encoding="UTF-8" standalone="no"?>
<!-- Created with Inkscape (http://www.inkscape.org/) -->

<svg
   xmlns:dc="http://purl.org/dc/elements/1.1/"
   xmlns:cc="http://creativecommons.org/ns#"
   xmlns:rdf="http://www.w3.org/1999/02/22-rdf-syntax-ns#"
   xmlns:svg="http://www.w3.org/2000/svg"
   xmlns="http://www.w3.org/2000/svg"
   xmlns:sodipodi="http://sodipodi.sourceforge.net/DTD/sodipodi-0.dtd"
   xmlns:inkscape="http://www.inkscape.org/namespaces/inkscape"
   width="128.85208mm"
   height="128.8521mm"
   viewBox="0 0 128.85208 128.8521"
   version="1.1"
   id="svg8"
   inkscape:version="0.92.2 (5c3e80d, 2017-08-06)"
   sodipodi:docname="facebook.svg">
  <defs
     id="defs2" />
  <sodipodi:namedview
     id="base"
     pagecolor="#ffffff"
     bordercolor="#666666"
     borderopacity="1.0"
     inkscape:pageopacity="0.0"
     inkscape:pageshadow="2"
     inkscape:zoom="0.35"
     inkscape:cx="39.214279"
     inkscape:cy="34.928581"
     inkscape:document-units="mm"
     inkscape:current-layer="layer1"
     showgrid="false"
     fit-margin-top="0"
     fit-margin-left="0"
     fit-margin-right="0"
     fit-margin-bottom="0"
     showborder="false"
     inkscape:window-width="1920"
     inkscape:window-height="1018"
     inkscape:window-x="-8"
     inkscape:window-y="-8"
     inkscape:window-maximized="1" />
  <metadata
     id="metadata5">
    <rdf:RDF>
      <cc:Work
         rdf:about="">
        <dc:format>image/svg+xml</dc:format>
        <dc:type
           rdf:resource="http://purl.org/dc/dcmitype/StillImage" />
        <dc:title></dc:title>
      </cc:Work>
    </rdf:RDF>
  </metadata>
  <g
     inkscape:label="Layer 1"
     inkscape:groupmode="layer"
     id="layer1"
     transform="translate(15.289135,-29.222764)">
    <g
       id="g21"
       transform="translate(80.130955,-5.2916667)">
      <path
         style="fill:#fdfdfd;stroke-width:1"
         d="m -95.42009,98.940471 v -64.42604 h 64.42604 64.42604 v 64.42604 64.426039 h -64.42604 -64.42604 z"
         id="path37"
         inkscape:connector-curvature="0" />
      <path
         style="fill:#dee2ee;stroke-width:1"
         d="m -95.42009,98.940471 v -64.42604 h 64.42604 64.42604 v 64.42604 64.426039 H 13.351965 c -18.0662814,0 -20.0961303,-0.042 -20.2406245,-0.41851 -0.2933436,-0.76444 -0.1830758,-48.78678 0.1132919,-49.34055 0.2617364,-0.48906 0.6375003,-0.51177 8.4666665,-0.51177 6.6374458,0 8.192775,-0.0667 8.192775,-0.35162 0,-0.19339 0.5346461,-4.33082 1.1881011,-9.19427 0.653454,-4.863459 1.189236,-9.051012 1.190625,-9.305673 0.0024,-0.432316 -0.619731,-0.463021 -9.3808762,-0.463021 -9.2370325,0 -9.3879985,-0.0086 -9.6783311,-0.55109 -0.2034989,-0.380238 -0.2669592,-2.90255 -0.2046975,-8.135937 0.086193,-7.244927 0.1175147,-7.645408 0.6988519,-8.93618 0.7116445,-1.5801 2.0784661,-2.983606 3.7509105,-3.851582 1.1470216,-0.595289 1.4498214,-0.620919 8.268229,-0.699847 l 7.0776044,-0.08192 v -8.599321 -8.59932 L 2.01272,54.417411 c -10.4582513,0.08877 -10.8373437,0.110013 -12.633854,0.707973 -6.382676,2.124442 -11.515545,6.68473 -13.822518,12.280588 -1.699392,4.1221 -1.738389,4.448278 -1.856248,15.526861 -0.06908,6.493084 -0.207986,10.306148 -0.383135,10.517187 -0.208931,0.251749 -2.200553,0.331076 -8.31216,0.331076 h -8.037396 v 9.657294 9.65729 h 8.016874 c 5.882569,0 8.101402,0.0845 8.334375,0.3175 0.242353,0.24235 0.3175,6.09237 0.3175,24.7169 0,13.41967 -0.07227,24.58773 -0.160599,24.81792 -0.145304,0.37865 -3.433511,0.41851 -34.528124,0.41851 H -95.42009 Z"
         id="path35"
         inkscape:connector-curvature="0" />
      <path
         style="fill:#d1d7e7;stroke-width:1"
         d="m -95.42009,98.940471 v -64.42604 h 64.42604 64.42604 v 64.42604 64.426039 H 13.460989 -6.5100117 l -0.1439068,-0.59531 c -0.07915,-0.32742 -0.1111833,-11.54906 -0.071186,-24.93698 l 0.072721,-24.34167 8.1734632,-0.13229 c 6.9036907,-0.11174 8.2057979,-0.19395 8.3816188,-0.52916 0.2011025,-0.38342 2.3965985,-16.778455 2.4624535,-18.388546 l 0.03247,-0.79375 -9.5250007,-0.132291 -9.5249998,-0.132292 -0.070353,-7.524594 c -0.081264,-8.691969 0.042971,-9.477716 1.817235,-11.493385 2.0647528,-2.345685 2.2644894,-2.394461 10.4239508,-2.545562 l 7.1437497,-0.132292 0.06971,-8.797395 0.06971,-8.797396 H 3.1640411 c -10.154978,0 -11.742171,0.137341 -15.0815431,1.305014 -5.085043,1.778078 -9.80789,6.03384 -12.205187,10.998111 -2.038326,4.220924 -2.045149,4.270324 -2.218766,16.060705 -0.09837,6.680126 -0.254379,10.603973 -0.428527,10.777805 -0.173215,0.172902 -3.235892,0.299116 -8.334375,0.343463 l -8.060526,0.07011 v 9.789585 9.78958 l 8.069791,0.0678 c 7.210145,0.0606 8.105024,0.11533 8.400521,0.51359 0.258908,0.34895 0.330729,5.68731 0.330729,24.58292 0,13.27544 -0.07227,24.32549 -0.160599,24.55568 -0.145304,0.37865 -3.433511,0.41851 -34.528124,0.41851 H -95.42009 Z"
         id="path33"
         inkscape:connector-curvature="0" />
      <path
         style="fill:#bdc6de;stroke-width:1"
         d="m -95.42009,98.940471 v -64.42604 h 64.42604 64.42604 v 64.42604 64.426039 H 13.484257 c -17.9456502,0 -19.9638522,-0.042 -20.1083332,-0.41851 -0.088331,-0.23019 -0.1605994,-11.33872 -0.1605994,-24.68563 0,-18.52164 0.075171,-24.34228 0.3175,-24.58461 0.2329868,-0.23298 2.4536505,-0.3175 8.3426774,-0.3175 6.1818783,0 8.0518289,-0.076 8.1412022,-0.33073 0.137777,-0.39274 2.513203,-18.410959 2.513203,-19.063286 0,-0.414777 -0.727498,-0.449731 -9.3603123,-0.449731 -7.8531771,0 -9.4115649,-0.06176 -9.6786433,-0.383569 -0.2367121,-0.285218 -0.2945421,-2.337409 -0.2255467,-8.003646 0.079055,-6.492523 0.1599618,-7.770344 0.5467694,-8.6356 0.7269374,-1.626103 1.9050978,-2.92209 3.4185859,-3.760481 l 1.4085226,-0.780245 7.1437498,-0.132292 7.1437496,-0.132292 0.06982,-8.713361 c 0.05445,-6.794797 -0.0038,-8.760103 -0.264584,-8.925637 -0.475826,-0.302042 -15.1030297,-0.26695 -18.6231362,0.04468 -1.6185938,0.143292 -3.7617188,0.512009 -4.7624998,0.819373 -7.477008,2.296365 -13.142619,8.150468 -15.224379,15.730894 -0.532209,1.937962 -0.589304,2.909388 -0.730043,12.421134 l -0.152681,10.31875 -8.268229,0.06992 -8.268229,0.06991 v 9.914339 9.91433 l 8.268229,0.0699 8.268229,0.0699 0.0675,24.93698 0.0675,24.93698 H -61.022908 -95.42009 Z"
         id="path31"
         inkscape:connector-curvature="0" />
      <path
         style="fill:#9daace;stroke-width:1"
         d="m -95.42009,98.940471 v -64.42604 h 64.42604 64.42604 v 64.42604 64.426039 H 13.454592 -6.5228043 l 0.0675,-24.80469 0.067503,-24.80468 8.1142838,-0.13229 c 4.4628566,-0.0728 8.1927618,-0.21095 8.2886785,-0.30709 0.353766,-0.35456 2.719549,-19.395326 2.451637,-19.731749 -0.196305,-0.246507 -2.5572798,-0.344546 -9.5576519,-0.396875 l -9.2969474,-0.0695 -0.070353,-7.525829 c -0.07988,-8.544764 0.023442,-9.189704 1.7944543,-11.201689 0.6065044,-0.689025 1.6125693,-1.432401 2.4331163,-1.797817 1.33081705,-0.592653 1.7378441,-0.627959 8.3478314,-0.724082 l 6.9488023,-0.10105 -0.06964,-8.903933 -0.06963,-8.903933 -9.5249996,-0.06966 c -7.7974981,-0.05703 -9.9328814,0.0065 -11.773958,0.35011 -8.0556974,1.503599 -14.5963374,7.262503 -17.2606644,15.197674 l -0.84395,2.513542 -0.141965,10.583333 -0.141962,10.583333 -8.047434,0.07009 c -5.398799,0.04702 -8.163644,0.166536 -8.400521,0.363124 -0.519197,0.430898 -0.519197,19.340171 0,19.771071 0.236877,0.19659 3.001722,0.3161 8.400521,0.36313 l 8.047434,0.0701 0.0675,24.80468 0.0675,24.80469 H -61.0229 -95.42009 Z"
         id="path29"
         inkscape:connector-curvature="0" />
      <path
         style="fill:#7487ba;stroke-width:1"
         d="m -95.42009,98.940471 v -64.42604 h 64.42604 64.42604 v 64.42604 64.426039 H 13.455949 -6.5200923 v -24.35906 c 0,-16.28534 0.090781,-24.52869 0.2738914,-24.87083 0.2615988,-0.4888 0.6360953,-0.51177 8.34268,-0.51177 6.2162345,0 8.0956519,-0.0759 8.1857949,-0.33073 0.166185,-0.46973 2.512217,-18.55855 2.512217,-19.370175 V 93.251929 H 3.4110905 c -9.323292,0 -9.3853421,-0.0036 -9.6870544,-0.567385 -0.2153338,-0.402355 -0.2711291,-2.653342 -0.1918282,-7.739063 0.105791,-6.784617 0.1448038,-7.246524 0.7228522,-8.558527 0.3360632,-0.76277 1.0861913,-1.816134 1.6669491,-2.340813 1.9518947,-1.763422 2.2118134,-1.813751 10.1256065,-1.960605 l 7.1437503,-0.132564 0.06975,-8.832083 c 0.04974,-6.297511 -0.0165,-8.936019 -0.230833,-9.19427 -0.242908,-0.292685 -1.921105,-0.362188 -8.7452884,-0.362188 -9.3828417,0 -12.5134075,0.246678 -15.5177566,1.222752 -7.231785,2.349512 -12.450402,7.774517 -14.782882,15.367524 -0.711107,2.31489 -0.715753,2.383034 -0.862308,12.646181 l -0.147352,10.31875 -8.202083,0.132291 -8.202083,0.132292 v 10.054169 10.05416 l 8.202083,0.1323 8.202083,0.13229 0.0675,24.80468 0.0675,24.80469 H -61.155192 -95.42009 Z"
         id="path27"
         inkscape:connector-curvature="0" />
      <path
         style="fill:#5068a9;stroke-width:1"
         d="m -95.42009,98.940471 v -64.42604 h 64.42604 64.42604 v 64.42604 64.426039 H 13.586878 -6.2582368 l 0.067511,-24.67239 0.067508,-24.6724 8.1433562,-0.07 8.1433556,-0.07 0.245785,-0.59148 c 0.347011,-0.83509 2.732418,-19.441403 2.552559,-19.91011 -0.125351,-0.326659 -1.606266,-0.396822 -9.6166107,-0.455617 l -9.4684451,-0.0695 v -7.672916 c 0,-8.468384 0.02331,-8.610719 1.7277873,-10.552017 0.4773692,-0.543692 1.3554683,-1.24941 1.9513285,-1.568257 1.0261679,-0.549108 1.46066402,-0.58379 8.2271339,-0.656661 6.2716391,-0.06755 7.1841251,-0.130244 7.4744781,-0.513591 0.248709,-0.328366 0.330731,-2.551276 0.330731,-8.963403 0,-4.689712 -0.07227,-8.715081 -0.160601,-8.945264 -0.142652,-0.371751 -1.303027,-0.418001 -10.384895,-0.41392 -11.187226,0.005 -12.1106059,0.09655 -15.774022,1.56345 -7.75037,3.103399 -13.11335,10.095606 -14.135446,18.429669 -0.159158,1.297768 -0.289714,6.197647 -0.290123,10.88862 l -7.46e-4,8.529044 -8.268229,0.06991 -8.268229,0.06992 v 10.318753 10.31875 l 8.268229,0.0699 8.268229,0.0699 v 24.31626 c 0,13.37394 0.07227,24.50458 0.1606,24.73477 0.145935,0.3803 -2.970272,0.41851 -34.13125,0.41851 H -95.42009 Z"
         id="path25"
         inkscape:connector-curvature="0" />
      <path
         style="fill:#39549e;stroke-width:1"
         d="m -95.42009,98.940471 v -64.42604 h 64.42604 64.42604 v 64.42604 64.426039 H 13.559933 c -18.0120156,0 -19.8570239,-0.0392 -19.7114581,-0.41851 0.088331,-0.23019 0.1605995,-11.303 0.1605995,-24.60625 v -24.18774 l 8.0036456,-0.004 c 4.4020051,-0.002 8.164293,-0.10585 8.360637,-0.23028 0.551598,-0.34956 3.120126,-20.276609 2.681682,-20.804903 C 12.778859,92.782 11.315277,92.722763 3.3693869,92.722763 h -9.3603125 v -7.095728 c 0,-7.861395 0.1626817,-8.960739 1.579483,-10.673628 0.4405154,-0.532571 1.4198124,-1.276712 2.1762164,-1.653645 1.37318219,-0.684284 1.38581075,-0.685337 8.2686444,-0.689383 3.8767781,-0.0024 7.0670388,-0.113741 7.2902388,-0.254709 0.337034,-0.212862 0.408374,-1.562023 0.473133,-8.947962 0.04759,-5.427352 -0.02455,-8.962469 -0.191889,-9.402582 L 13.336754,53.299847 H 3.2648844 c -11.08275,0 -12.3183647,0.124954 -16.1106214,1.629225 -2.883144,1.143652 -4.887259,2.441712 -7.239405,4.688937 -3.31679,3.168844 -5.456176,6.814937 -6.581621,11.216863 -0.502158,1.964086 -0.568942,3.138019 -0.684485,12.032162 l -0.128037,9.855729 h -7.988319 c -5.860362,0 -8.072897,0.08458 -8.305821,0.3175 -0.455752,0.455753 -0.455752,20.340497 0,20.796247 0.232974,0.23298 2.451807,0.3175 8.334375,0.3175 h 8.016875 v 24.18774 c 0,13.30325 0.07227,24.37606 0.160599,24.60625 0.145934,0.38029 -2.958613,0.41851 -33.998957,0.41851 H -95.42009 Z"
         id="path23"
         inkscape:connector-curvature="0" />
    </g>
  </g>
</svg>
