<?xml version="1.0" encoding="UTF-8" standalone="no"?>
<!-- Created with Inkscape (http://www.inkscape.org/) -->

<svg
   xmlns:dc="http://purl.org/dc/elements/1.1/"
   xmlns:cc="http://creativecommons.org/ns#"
   xmlns:rdf="http://www.w3.org/1999/02/22-rdf-syntax-ns#"
   xmlns:svg="http://www.w3.org/2000/svg"
   xmlns="http://www.w3.org/2000/svg"
   xmlns:sodipodi="http://sodipodi.sourceforge.net/DTD/sodipodi-0.dtd"
   xmlns:inkscape="http://www.inkscape.org/namespaces/inkscape"
   width="128.76039mm"
   height="128.76039mm"
   viewBox="0 0 128.76039 128.76039"
   version="1.1"
   id="svg82"
   inkscape:version="0.92.2 (5c3e80d, 2017-08-06)"
   sodipodi:docname="linkedin.svg">
  <defs
     id="defs76" />
  <sodipodi:namedview
     id="base"
     pagecolor="#ffffff"
     bordercolor="#666666"
     borderopacity="1.0"
     inkscape:pageopacity="0.0"
     inkscape:pageshadow="2"
     inkscape:zoom="0.35"
     inkscape:cx="-160.95901"
     inkscape:cy="180.46958"
     inkscape:document-units="mm"
     inkscape:current-layer="layer1"
     showgrid="false"
     fit-margin-top="0"
     fit-margin-left="0"
     fit-margin-right="0"
     fit-margin-bottom="0"
     inkscape:window-width="1920"
     inkscape:window-height="1018"
     inkscape:window-x="-8"
     inkscape:window-y="-8"
     inkscape:window-maximized="1" />
  <metadata
     id="metadata79">
    <rdf:RDF>
      <cc:Work
         rdf:about="">
        <dc:format>image/svg+xml</dc:format>
        <dc:type
           rdf:resource="http://purl.org/dc/dcmitype/StillImage" />
        <dc:title></dc:title>
      </cc:Work>
    </rdf:RDF>
  </metadata>
  <g
     inkscape:label="Layer 1"
     inkscape:groupmode="layer"
     id="layer1"
     transform="translate(-37.67338,-67.822186)">
    <g
       id="g95"
       transform="translate(8.315479,2.2678568)">
      <path
         style="fill:#fdfdfd;stroke-width:1"
         d="M 29.357901,129.93452 V 65.554329 h 64.380195 64.380194 v 64.380191 64.3802 H 93.738096 29.357901 Z"
         id="path111"
         inkscape:connector-curvature="0" />
      <path
         style="fill:#d0e7ef;stroke-width:1"
         d="M 29.357901,129.93452 V 65.554329 h 64.380195 64.380194 v 64.380191 64.3802 H 93.738096 29.357901 Z m 37.893504,43.86061 c 0.390204,-0.28959 0.844537,-0.91202 1.009627,-1.38317 0.367697,-1.04938 0.452442,-53.33418 0.08899,-54.90104 -0.125162,-0.53957 -0.464943,-1.21858 -0.755071,-1.50891 -0.507807,-0.50816 -0.799047,-0.53063 -7.797896,-0.60156 l -7.270389,-0.0737 -0.833392,0.7446 -0.833392,0.7446 -0.06671,27.62116 c -0.04829,19.99346 0.01127,27.80984 0.21567,28.3044 0.651942,1.57743 1.240144,1.68285 9.075238,1.62654 6.121714,-0.044 6.49479,-0.0738 7.167327,-0.57294 z m 30.871309,0.407 0.645085,-0.24526 0.0015,-16.9186 c 7.54e-4,-9.65972 0.10548,-17.55381 0.24391,-18.39911 0.97496,-5.95343 6.536721,-10.00136 12.367791,-9.00144 3.54188,0.60737 6.38008,2.77063 7.97824,6.08096 l 0.91058,1.88614 0.12574,18.149 c 0.0692,9.98196 0.21991,18.24324 0.33499,18.35842 0.3163,0.31654 16.04307,0.40633 16.85864,0.0962 l 0.68021,-0.25861 -0.0834,-21.81906 c -0.0938,-24.53223 0.0428,-22.74208 -2.06905,-27.10026 -1.98527,-4.09687 -4.88917,-7.00275 -9.05709,-9.06324 -3.24719,-1.60532 -4.6439,-1.91542 -9.29219,-2.06307 -5.74835,-0.18261 -8.73968,0.46374 -12.20979,2.63822 -1.72647,1.08185 -4.30425,3.58072 -5.31874,5.15592 -0.473012,0.73445 -0.952966,1.19455 -1.246092,1.19455 -0.444133,0 -0.476753,-0.229 -0.476753,-3.34698 0,-2.28108 -0.100112,-3.48364 -0.314357,-3.77608 -0.287078,-0.39186 -1.034542,-0.42331 -8.613366,-0.36242 l -8.299009,0.0667 -0.06392,29.24286 -0.06392,29.24286 0.56689,0.22783 c 0.774798,0.31139 15.578765,0.32444 16.394082,0.0144 z M 61.890916,105.92048 c 3.122346,-0.66152 5.639132,-2.68133 7.054131,-5.6612 0.721188,-1.518766 0.776218,-1.830776 0.776218,-4.400992 0,-2.478947 -0.07043,-2.916632 -0.677976,-4.21304 -0.945312,-2.017169 -2.936282,-4.0405 -4.952653,-5.033156 -1.559034,-0.767509 -1.807622,-0.813209 -4.423487,-0.813209 -2.579783,0 -2.885845,0.05412 -4.421808,0.781959 -4.165954,1.97409 -6.546108,6.426138 -5.810111,10.867735 0.836526,5.048273 4.912526,8.604333 10.100887,8.812403 0.345792,0.0138 1.40545,-0.13936 2.354799,-0.3405 z"
         id="path109"
         inkscape:connector-curvature="0" />
      <path
         style="fill:#b1d8e6;stroke-width:1"
         d="M 29.357901,129.93452 V 65.554329 h 64.380195 64.380194 v 64.380191 64.3802 H 93.738096 29.357901 Z m 38.376632,43.65782 0.855049,-0.85505 -0.0037,-27.75138 c -0.0029,-21.682 -0.07241,-27.88889 -0.317854,-28.3801 -0.172783,-0.34579 -0.708663,-0.83011 -1.190848,-1.07626 -0.788971,-0.40277 -1.574583,-0.44052 -7.850988,-0.37723 l -6.974298,0.0703 -0.821751,0.82211 -0.821751,0.82211 -0.06726,27.30105 c -0.04626,18.77699 0.01662,27.61256 0.201395,28.29877 0.186243,0.69165 0.51546,1.1482 1.073202,1.48827 0.747706,0.45591 1.30823,0.49063 7.934149,0.4915 l 7.129603,0.001 0.85505,-0.85505 z m 31.024418,0.36862 c 0.17217,-0.32171 0.260333,-6.308 0.260333,-17.67687 0,-18.73373 0.0052,-18.81042 1.441516,-21.27974 2.40598,-4.13635 7.52268,-6.26026 11.96818,-4.96791 3.44302,1.00091 5.9661,3.39278 7.29222,6.91297 0.51736,1.37335 0.5346,1.8756 0.66559,19.39105 l 0.13447,17.98119 8.67624,0.0666 c 7.93343,0.0609 8.70315,0.0298 8.99059,-0.36243 0.40269,-0.54952 0.45115,-38.96317 0.0535,-42.43394 -0.5425,-4.73549 -2.40933,-8.5946 -5.78676,-11.9624 -2.23634,-2.22997 -3.96804,-3.41256 -6.48699,-4.43001 -3.17395,-1.28201 -4.40967,-1.48046 -9.21889,-1.48046 -5.20832,0 -6.52339,0.25368 -9.90301,1.91032 -2.32015,1.1373 -5.49178,3.9124 -6.75287,5.9086 -1.282768,2.03051 -1.576796,1.50723 -1.576796,-2.80618 0,-2.82149 -0.04571,-3.13862 -0.486438,-3.37449 -0.660923,-0.35371 -15.970161,-0.35371 -16.631084,0 -0.476628,0.25509 -0.486438,0.84755 -0.486438,29.37347 0,22.30823 0.07054,29.18367 0.301782,29.41491 0.222803,0.2228 2.524063,0.30178 8.793133,0.30178 8.137762,0 8.502189,-0.0202 8.751682,-0.48643 z M 63.39265,105.67962 c 2.120736,-0.87198 3.380111,-1.82674 4.610524,-3.49535 4.371883,-5.928854 1.555001,-14.282055 -5.525271,-16.38467 -3.759562,-1.11647 -8.52201,0.361735 -10.96681,3.403962 -4.092698,5.092815 -2.79792,12.336888 2.825362,15.807428 1.497102,0.92398 2.871136,1.24937 5.325405,1.26114 1.830352,0.009 2.544107,-0.10458 3.73079,-0.59251 z"
         id="path107"
         inkscape:connector-curvature="0" />
      <path
         style="fill:#8dc7db;stroke-width:1"
         d="M 29.357901,129.93452 V 65.554329 h 64.380195 64.380194 v 64.380191 64.3802 H 93.738096 29.357901 Z m 37.722771,44.32387 c 0.501753,-0.25066 1.070275,-0.81815 1.322286,-1.31991 0.414955,-0.82618 0.438104,-2.57023 0.377227,-28.41782 -0.06085,-25.83309 -0.09232,-27.57803 -0.508485,-28.19044 -0.795153,-1.17012 -1.249614,-1.23332 -8.869192,-1.23332 h -7.151524 l -0.821295,0.73379 -0.821294,0.73379 -0.07013,27.7469 c -0.03857,15.2608 -0.01257,27.98381 0.05778,28.27336 0.170361,0.70118 1.299303,1.80646 1.980701,1.93919 0.300578,0.0585 3.488882,0.12169 7.085119,0.14031 5.765284,0.0298 6.642716,-0.0182 7.418812,-0.40585 z m 31.505162,0.12613 c 0.380344,-0.28662 0.424057,-1.88944 0.495552,-18.1698 0.07353,-16.74332 0.107824,-17.93376 0.550631,-19.11287 1.488853,-3.96452 4.457883,-6.5052 8.416883,-7.20256 3.99274,-0.70331 8.52765,1.47034 10.65075,5.10506 1.44083,2.46668 1.44439,2.51964 1.44439,21.50043 v 17.41112 l 0.55892,0.39149 c 0.47822,0.33495 1.74669,0.39149 8.78402,0.39149 7.21023,0 8.27482,-0.0497 8.62816,-0.40307 0.36485,-0.36485 0.39542,-2.48097 0.3224,-22.31931 -0.0903,-24.51954 0.0319,-22.83575 -1.95706,-26.97942 -2.3916,-4.9825 -6.99189,-8.92941 -12.43843,-10.67181 -2.47971,-0.79329 -10.20518,-1.00711 -13.10197,-0.36263 -3.96028,0.88107 -8.48748,3.90997 -10.68477,7.14857 -1.329807,1.96001 -1.487511,1.76056 -1.487511,-1.88134 0,-1.73805 -0.11715,-3.37899 -0.260333,-3.64653 -0.24941,-0.46603 -0.612902,-0.48644 -8.661978,-0.48644 -8.396932,0 -8.401862,2.5e-4 -8.793132,0.55893 -0.348782,0.49795 -0.391487,3.69392 -0.391487,29.29802 0,28.40378 0.0059,28.74496 0.50297,29.24206 0.48253,0.48253 0.838283,0.50297 8.753914,0.50297 6.210624,0 8.354094,-0.0777 8.668081,-0.31436 z M 62.214386,106.1956 c 1.935312,-0.51529 3.715334,-1.58489 5.1341,-3.08503 5.693852,-6.020405 2.506139,-15.93469 -5.658801,-17.599759 -3.484052,-0.7105 -6.762523,0.263187 -9.419538,2.797548 -5.302359,5.057596 -3.955825,13.753981 2.663139,17.199471 1.862747,0.96965 5.080799,1.27362 7.2811,0.68777 z"
         id="path105"
         inkscape:connector-curvature="0" />
      <path
         style="fill:#6cb7d0;stroke-width:1"
         d="M 29.357901,129.93452 V 65.554329 h 64.380195 64.380194 v 64.380191 64.3802 H 93.738096 29.357901 Z m 37.982487,44.38287 c 1.586036,-0.82017 1.501044,0.85304 1.496973,-29.46988 -0.0029,-21.41472 -0.07344,-27.74867 -0.314357,-28.21746 -0.170856,-0.33245 -0.630257,-0.84171 -1.020886,-1.13168 -0.682367,-0.50652 -0.993216,-0.52721 -7.921782,-0.52721 -6.464135,0 -7.278909,0.0458 -7.861522,0.44176 -1.433457,0.97426 -1.361904,-0.57588 -1.361904,29.5046 v 27.73259 l 0.527213,0.71003 c 0.960185,1.29313 1.208024,1.33104 8.727354,1.33503 5.762483,0.003 7.120855,-0.0633 7.728911,-0.37778 z m 31.538894,-0.17744 c 0.345085,-0.49268 0.391487,-2.60275 0.391487,-17.80261 0,-18.67612 0.0025,-18.71329 1.381491,-21.17633 0.94965,-1.6961 2.7419,-3.35982 4.61022,-4.27958 1.34555,-0.66242 1.98239,-0.81254 3.81942,-0.90037 3.97357,-0.18998 7.19946,1.45596 9.3153,4.75292 1.64197,2.55856 1.58495,1.83116 1.68295,21.47013 0.0609,12.20522 0.17428,17.94754 0.35874,18.1698 0.21087,0.25408 2.15245,0.32497 8.90089,0.32497 h 8.63118 l 0.39149,-0.55893 c 0.34635,-0.49449 0.39125,-2.85024 0.38942,-20.43317 -0.001,-11.98876 -0.10484,-20.77227 -0.2611,-22.1376 -0.49591,-4.33306 -2.3898,-8.44988 -5.33628,-11.59967 -2.67659,-2.86129 -5.50949,-4.60446 -9.41234,-5.79171 -2.04403,-0.6218 -2.57395,-0.6754 -6.86742,-0.69467 -5.32132,-0.0239 -6.607,0.21565 -9.93366,1.85075 -2.5452,1.251 -4.93339,3.22814 -6.5153,5.39392 -0.878601,1.2029 -1.294042,1.5951 -1.442184,1.36153 -0.114449,-0.18044 -0.20982,-1.70797 -0.211937,-3.39451 -0.0036,-2.88146 -0.03757,-3.09004 -0.562778,-3.45792 -0.837044,-0.58628 -16.152031,-0.58628 -16.989074,0 l -0.558928,0.39149 v 29.14006 c 0,26.15564 0.04047,29.18052 0.395191,29.53524 0.343707,0.34371 1.504892,0.39519 8.913461,0.39519 8.517452,0 8.518309,-5e-5 8.909761,-0.55893 z M 64.06285,105.62798 c 2.975637,-1.41891 4.856429,-3.55595 5.790176,-6.579077 2.204562,-7.137538 -3.38664,-14.291283 -10.798508,-13.816316 -5.818563,0.372865 -10.136659,4.906466 -10.12061,10.625701 0.0091,3.255822 1.089841,5.722142 3.48697,7.957752 2.280337,2.12669 3.988422,2.73073 7.492467,2.64962 2.225711,-0.0515 2.702791,-0.14783 4.149505,-0.83768 z"
         id="path103"
         inkscape:connector-curvature="0" />
      <path
         style="fill:#4ca7c7;stroke-width:1"
         d="M 29.357901,129.93452 V 65.554329 h 64.380195 64.380194 v 64.380191 64.3802 H 93.738096 29.357901 Z m 38.045403,44.4465 c 0.371967,-0.24398 0.875923,-0.74826 1.119904,-1.12062 0.417055,-0.63651 0.443602,-2.34076 0.443602,-28.47719 v -27.80017 l -0.559315,-0.78411 c -0.948529,-1.32976 -1.323801,-1.38288 -9.197685,-1.30191 l -7.209333,0.0741 -0.821784,0.82212 -0.821783,0.82212 -0.07251,27.46996 c -0.03988,15.10847 -0.008,27.82968 0.0709,28.26933 0.197364,1.1001 0.825619,1.7942 2.013495,2.22454 0.800899,0.29015 2.366742,0.3523 7.682074,0.30491 5.891638,-0.0525 6.755605,-0.11165 7.352439,-0.50312 z m 31.451966,0.0984 c 0.378752,-0.31462 0.415668,-1.83814 0.417398,-17.22673 0.0013,-10.47769 0.101124,-17.49311 0.263468,-18.49367 1.268314,-7.81684 10.352224,-11.41376 16.495524,-6.53167 1.4678,1.16646 2.79646,3.11587 3.35401,4.92098 0.48756,1.57856 0.50688,2.30662 0.50688,19.10426 v 17.46316 l 0.62693,0.62693 0.62692,0.62692 8.44705,-0.0725 c 8.02626,-0.0689 8.46481,-0.0968 8.80376,-0.56068 0.53319,-0.72965 0.52942,-41.46253 -0.004,-44.1912 -1.29286,-6.61249 -5.35727,-11.93422 -11.28939,-14.78176 -3.25793,-1.56387 -4.50492,-1.81731 -9.62769,-1.95677 -4.03937,-0.10995 -4.79265,-0.0646 -6.66436,0.40134 -3.36502,0.83766 -6.03655,2.3245 -8.41464,4.68317 -1.11604,1.10693 -2.32729,2.40868 -2.691659,2.89279 l -0.66249,0.8802 -0.0118,-3.15048 c -0.01764,-4.70074 0.910032,-4.26833 -9.157232,-4.26833 -6.824731,0 -8.452192,0.0656 -8.850592,0.35691 -0.477571,0.34916 -0.489644,0.97704 -0.556255,28.9284 -0.03745,15.71432 0.02624,28.93586 0.141538,29.38121 0.365858,1.41317 0.610085,1.44809 9.633329,1.37714 6.505684,-0.0512 8.283632,-0.1357 8.613366,-0.40961 z M 61.575456,106.5412 c 7.417209,-1.40665 11.224883,-9.842119 7.319525,-16.215585 -3.672903,-5.994102 -11.889106,-7.025939 -16.87393,-2.119123 -4.307877,4.240463 -4.321574,11.002692 -0.03107,15.338198 2.606257,2.63359 5.964109,3.68329 9.585473,2.99651 z"
         id="path101"
         inkscape:connector-curvature="0" />
      <path
         style="fill:#2997bc;stroke-width:1"
         d="M 29.357901,129.93452 V 65.554329 h 64.380195 64.380194 v 64.380191 64.3802 H 93.738096 29.357901 Z m 37.997865,44.62641 c 0.414199,-0.21419 0.973997,-0.75174 1.243996,-1.19456 0.479009,-0.7856 0.490932,-1.47486 0.49185,-28.43047 0.001,-30.4773 0.09443,-28.71457 -1.574906,-29.72431 -0.742223,-0.44895 -1.388157,-0.49873 -7.394741,-0.56987 -7.538455,-0.0893 -8.27618,0.0205 -9.318154,1.38645 l -0.698386,0.91554 -0.07617,26.67709 c -0.04189,14.6724 -0.0053,27.27239 0.08129,27.99998 0.166402,1.398 0.994638,2.68478 1.986249,3.08593 0.287915,0.11647 3.669523,0.21895 7.514683,0.22771 5.842151,0.0133 7.114978,-0.0481 7.744289,-0.37349 z m 31.311514,0.19697 c 0.823056,-0.54957 0.854974,-1.2442 0.854974,-18.60674 0,-19.15092 -0.03215,-18.72783 1.618576,-21.30078 1.88549,-2.93887 4.49143,-4.4481 7.97296,-4.61751 3.62402,-0.17635 6.57951,1.20334 8.6748,4.04959 2.04425,2.77691 1.95429,1.81266 2.04538,21.92476 0.0724,15.98463 0.12313,17.89467 0.48592,18.29554 0.37332,0.41252 1.07901,0.4476 9.00335,0.4476 8.42244,0 8.60808,-0.0108 9.07736,-0.52948 0.46308,-0.51179 0.47908,-1.23215 0.47908,-21.56485 0,-16.31727 -0.0741,-21.42724 -0.33036,-22.78249 -1.47479,-7.79964 -7.40864,-14.12505 -15.26172,-16.26879 -2.72115,-0.74282 -10.14965,-0.82937 -12.7,-0.14797 -3.70233,0.98919 -7.41104,3.35619 -9.82577,6.27106 -0.72076,0.87007 -1.407701,1.61965 -1.526515,1.66576 -0.118817,0.0461 -0.216031,-1.26199 -0.216031,-2.90688 0,-2.1849 -0.09611,-3.12225 -0.356719,-3.47888 -0.33865,-0.46344 -0.775746,-0.49184 -8.630125,-0.56063 -8.092892,-0.0709 -8.288128,-0.0609 -8.948231,0.45835 l -0.674825,0.53082 v 29.15402 c 0,28.81871 0.0058,29.15981 0.50297,29.65699 0.483261,0.48326 0.835564,0.50282 8.990594,0.49912 4.668193,-0.002 8.612141,-0.087 8.764332,-0.18861 z M 64.127866,105.86043 c 7.024227,-3.30002 8.64789,-12.241011 3.210377,-17.678525 -4.41113,-4.411129 -11.416593,-4.321278 -15.646354,0.200678 -2.049154,2.190711 -2.996284,4.552002 -2.998558,7.475705 -0.003,3.850916 1.807458,7.183282 5.078796,9.348152 1.82782,1.20959 3.368278,1.59038 6.141218,1.51808 2.22416,-0.058 2.711317,-0.15788 4.214521,-0.86409 z"
         id="path99"
         inkscape:connector-curvature="0" />
      <path
         style="fill:#0083b0;stroke-width:1"
         d="M 29.357901,129.93452 V 65.554329 h 64.380195 64.380194 v 64.380191 64.3802 H 93.738096 29.357901 Z m 38.396444,44.62074 c 0.390222,-0.28647 0.908425,-0.90889 1.151563,-1.38317 0.415079,-0.80968 0.438107,-2.55871 0.377228,-28.65143 -0.07163,-30.69836 0.05772,-28.35025 -1.622774,-29.45829 -0.645421,-0.42556 -1.32587,-0.46519 -7.998502,-0.46584 -6.791435,-7.6e-4 -7.348447,0.0331 -8.098186,0.49019 -1.686106,1.02808 -1.583992,-0.88644 -1.583992,29.6978 0,31.07847 -0.133499,28.91399 1.844416,29.9043 0.998682,0.50002 1.378983,0.52134 8.134208,0.45592 6.713408,-0.065 7.123902,-0.0961 7.796039,-0.58948 z m 30.874128,0.49126 c 1.001631,-0.38436 1.015266,-0.61464 1.145266,-19.34053 l 0.125743,-18.11269 0.815138,-1.6553 c 1.91067,-3.88002 6.11025,-6.10346 10.38642,-5.49903 4.14452,0.58583 7.48877,3.8289 8.28662,8.0359 0.15461,0.81529 0.25341,7.99417 0.25341,18.41432 v 17.0781 l 0.62668,0.62668 0.62669,0.62669 8.69876,-0.0723 c 8.34013,-0.0693 8.71378,-0.0928 9.06325,-0.57105 0.31308,-0.42843 0.35453,-3.62064 0.29386,-22.63366 l -0.0706,-22.13489 -0.83018,-2.38911 c -1.9185,-5.52112 -5.71486,-9.8798 -10.73814,-12.32869 -6.42119,-3.13039 -16.19638,-2.89446 -21.8842,0.52818 -1.69834,1.02198 -4.30971,3.3525 -5.16723,4.61152 -0.336565,0.49413 -0.69681,0.8992 -0.800547,0.90015 -0.103738,0.001 -0.188614,-1.21796 -0.188614,-2.70866 0,-2.04609 -0.09595,-2.84737 -0.391487,-3.26931 l -0.391489,-0.55893 h -8.644015 c -9.327913,0 -9.238593,-0.0125 -9.566955,1.33788 -0.07332,0.30154 -0.101786,13.54433 -0.06325,29.42843 l 0.07007,28.88017 0.593701,0.48072 c 0.557983,0.4518 1.097655,0.48072 8.970027,0.48072 4.606977,0 8.558475,-0.0699 8.781104,-0.15533 z M 62.774014,106.57558 c 2.012195,-0.62626 3.421729,-1.48655 4.857236,-2.96451 6.245418,-6.430129 2.623669,-17.153831 -6.325824,-18.730253 -3.365789,-0.592873 -7.194463,0.711186 -9.65178,3.287426 -2.369948,2.484642 -3.313857,5.013046 -3.136065,8.400423 0.373117,7.108804 7.498446,12.110234 14.256433,10.006914 z"
         id="path97"
         inkscape:connector-curvature="0" />
    </g>
  </g>
</svg>
