<?xml version="1.0" encoding="UTF-8" standalone="no"?>
<!-- Created with Inkscape (http://www.inkscape.org/) -->

<svg
   xmlns:dc="http://purl.org/dc/elements/1.1/"
   xmlns:cc="http://creativecommons.org/ns#"
   xmlns:rdf="http://www.w3.org/1999/02/22-rdf-syntax-ns#"
   xmlns:svg="http://www.w3.org/2000/svg"
   xmlns="http://www.w3.org/2000/svg"
   xmlns:sodipodi="http://sodipodi.sourceforge.net/DTD/sodipodi-0.dtd"
   xmlns:inkscape="http://www.inkscape.org/namespaces/inkscape"
   width="128.76039mm"
   height="128.76039mm"
   viewBox="0 0 128.76039 128.76039"
   version="1.1"
   id="svg8"
   inkscape:version="0.92.2 (5c3e80d, 2017-08-06)"
   sodipodi:docname="twitter.svg">
  <defs
     id="defs2" />
  <sodipodi:namedview
     id="base"
     pagecolor="#ffffff"
     bordercolor="#666666"
     borderopacity="1.0"
     inkscape:pageopacity="0.0"
     inkscape:pageshadow="2"
     inkscape:zoom="0.35"
     inkscape:cx="-183.81612"
     inkscape:cy="143.32672"
     inkscape:document-units="mm"
     inkscape:current-layer="layer1"
     showgrid="false"
     inkscape:window-width="1920"
     inkscape:window-height="1018"
     inkscape:window-x="-8"
     inkscape:window-y="-8"
     inkscape:window-maximized="1"
     fit-margin-top="0"
     fit-margin-left="0"
     fit-margin-right="0"
     fit-margin-bottom="0" />
  <metadata
     id="metadata5">
    <rdf:RDF>
      <cc:Work
         rdf:about="">
        <dc:format>image/svg+xml</dc:format>
        <dc:type
           rdf:resource="http://purl.org/dc/dcmitype/StillImage" />
        <dc:title></dc:title>
      </cc:Work>
    </rdf:RDF>
  </metadata>
  <g
     inkscape:label="Layer 1"
     inkscape:groupmode="layer"
     id="layer1"
     transform="translate(-43.720992,-57.994809)">
    <g
       id="g21"
       transform="translate(-4.7619048e-6,14.363095)">
      <path
         style="fill:#fdfdfd;stroke-width:1"
         d="M 43.720997,108.01191 V 43.631714 h 64.380193 64.3802 v 64.380196 64.38019 h -64.3802 -64.380193 z"
         id="path37"
         inkscape:connector-curvature="0" />
      <path
         style="fill:#d0e7f9;stroke-width:1"
         d="M 43.720997,108.01191 V 43.631714 h 64.380193 64.3802 v 64.380196 64.38019 h -64.3802 -64.380193 z m 52.507433,38.96708 c 23.1051,-2.5035 42.18512,-19.21479 47.67194,-41.75362 0.88192,-3.62276 1.36332,-7.226221 1.56832,-11.739464 l 0.17433,-3.837884 2.08258,-1.768084 c 1.14542,-0.972445 3.11,-2.842776 4.36572,-4.156285 2.13377,-2.231961 2.7397,-3.101149 1.95085,-2.798439 -1.30232,0.499747 -4.65637,1.458328 -6.26592,1.790791 -3.82646,0.790375 -4.08638,0.437234 -1.34637,-1.82922 1.02483,-0.847716 2.4262,-2.24925 3.11415,-3.114523 1.28998,-1.622476 2.86936,-4.431112 2.67165,-4.751022 -0.0616,-0.09964 -1.04395,0.252826 -2.18303,0.783256 -2.83325,1.319346 -8.31913,3.274741 -9.18731,3.274741 -0.46958,0 -0.96253,-0.265455 -1.45007,-0.780861 -1.78857,-1.890826 -5.36974,-3.832581 -8.53467,-4.627618 -2.48081,-0.623186 -6.68664,-0.581613 -9.23032,0.09123 -6.49751,1.7187 -11.39185,6.408028 -13.55535,12.987543 -0.50586,1.538365 -0.5809,2.283756 -0.59497,5.909901 l -0.0161,4.149504 -1.63034,-0.06071 c -2.25944,-0.08414 -6.573203,-0.918532 -10.29898,-1.992096 -5.854237,-1.68687 -11.217233,-4.128393 -16.102634,-7.330782 -3.589145,-2.352691 -5.389243,-3.829626 -8.883453,-7.288645 -3.393616,-3.35944 -3.159841,-3.341632 -4.308125,-0.328184 -2.677868,7.027544 -0.780189,14.152057 5.482048,20.581416 1.891258,1.941735 1.766383,2.276545 -0.689568,1.848855 -1.426413,-0.248399 -3.943746,-1.007137 -5.536005,-1.668583 -0.456611,-0.189683 -0.472932,-0.100076 -0.326366,1.791813 0.585502,7.55769 5.687232,13.60394 13.334581,15.80331 1.106469,0.31822 1.442619,0.52232 1.381649,0.8389 -0.113598,0.58988 -1.36191,0.82023 -4.792879,0.88446 -1.936883,0.0363 -2.954951,0.15004 -2.954951,0.33028 0,0.57388 1.548183,3.31642 2.82272,5.00035 1.655132,2.18676 3.752732,3.89561 6.356488,5.17842 2.066531,1.01813 5.398023,1.98564 6.860862,1.99249 0.937441,0.004 1.299373,0.5452 0.782038,1.16855 -0.619705,0.7467 -3.976493,2.86478 -6.700789,4.22811 -5.266627,2.63557 -9.318482,3.65751 -15.402506,3.88471 l -4.149505,0.15496 3.017821,1.53897 c 5.904786,3.0112 11.69378,4.7529 18.609901,5.59906 2.558403,0.31301 9.063961,0.32089 11.892583,0.0144 z"
         id="path35"
         inkscape:connector-curvature="0" />
      <path
         style="fill:#afd7f7;stroke-width:1"
         d="M 43.720997,108.01191 V 43.631714 h 64.380193 64.3802 v 64.380196 64.38019 h -64.3802 -64.380193 z m 53.111345,39.11019 c 11.992138,-1.40279 22.975508,-6.5595 31.612008,-14.84188 10.82481,-10.38096 16.66934,-23.51313 17.23637,-38.728706 0.067,-1.798119 0.12665,-3.391008 0.13254,-3.539752 0.006,-0.148746 0.718,-0.846106 1.58248,-1.549691 1.96046,-1.595586 6.37959,-6.043384 7.03868,-7.084354 0.60125,-0.949606 0.38518,-0.984467 -1.65574,-0.267138 -1.78181,0.626253 -6.37065,1.752047 -7.14333,1.752492 -0.85588,5.03e-4 -0.67099,-0.542242 0.47108,-1.382844 1.58094,-1.163624 4.10252,-3.947592 5.0489,-5.574271 1.04734,-1.800219 1.57761,-3.066919 1.37055,-3.273972 -0.0857,-0.08573 -1.14777,0.302849 -2.36008,0.863515 -2.66578,1.232855 -8.41149,3.332253 -9.11983,3.332253 -0.28095,0 -1.35689,-0.67235 -2.39099,-1.494111 -3.67751,-2.92238 -7.59723,-4.315261 -12.19537,-4.333652 -5.5922,-0.02236 -10.44325,2.057689 -14.1313,6.05928 -3.85062,4.177978 -5.46122,8.782435 -5.14289,14.702707 l 0.1608,2.990626 -1.68454,-0.172587 c -2.63804,-0.270276 -6.712749,-1.097086 -10.013934,-2.031957 -9.866534,-2.794133 -18.904173,-8.159066 -25.5602,-15.173074 -1.335675,-1.407512 -2.501595,-2.559113 -2.590935,-2.559113 -0.316785,0 -1.640818,3.172538 -2.142136,5.132802 -1.023622,4.002597 -0.516412,8.212244 1.461094,12.126515 1.218058,2.41102 2.048229,3.568259 4.183649,5.83192 1.703329,1.805618 1.962114,2.308762 1.18748,2.308762 -0.730786,0 -4.577406,-1.025013 -5.778136,-1.539705 -0.605848,-0.259697 -1.222137,-0.472176 -1.369532,-0.472176 -0.449835,0 -0.03442,3.964401 0.636941,6.078541 1.678995,5.28719 5.558863,9.38352 10.775947,11.37715 1.016556,0.38846 2.102914,0.80465 2.414127,0.92486 1.637686,0.63259 -0.109605,1.09346 -4.149505,1.0945 -3.239448,7.6e-4 -3.199708,-0.0369 -2.207504,2.09434 1.480843,3.18078 4.611498,6.59473 7.551563,8.23491 2.164178,1.20733 3.830843,1.81159 6.463965,2.34355 1.271582,0.25689 2.353494,0.59165 2.404249,0.74392 0.13808,0.41424 -3.357724,2.75288 -6.552521,4.38353 -5.340586,2.72588 -9.31899,3.70999 -15.754403,3.89705 -5.440066,0.15813 -5.428417,0.0126 -0.206836,2.58401 9.279767,4.5699 19.969384,6.38391 30.417289,5.16175 z"
         id="path33"
         inkscape:connector-curvature="0" />
      <path
         style="fill:#8ec8f4;stroke-width:1"
         d="M 43.720997,108.01191 V 43.631714 h 64.380193 64.3802 v 64.380196 64.38019 h -64.3802 -64.380193 z m 54.52288,39.1066 c 9.357883,-1.33376 18.177053,-5.06075 26.072643,-11.01833 2.78025,-2.09783 8.21974,-7.60453 10.35634,-10.48431 7.26038,-9.78579 11.14044,-21.21552 11.14904,-32.842383 l 0.002,-2.789911 1.94901,-1.650371 c 2.22018,-1.87999 6.30119,-6.005375 6.97361,-7.049441 0.24776,-0.384686 0.37519,-0.774702 0.28319,-0.866703 -0.092,-0.092 -1.09755,0.138546 -2.23456,0.512323 -4.09696,1.346814 -7.50041,2.028384 -7.45993,1.493912 0.008,-0.103737 0.70264,-0.748311 1.54397,-1.432386 1.93265,-1.571407 4.03212,-4.10599 4.99202,-6.026592 0.62917,-1.258772 0.97313,-2.663298 0.65227,-2.663298 -0.0498,0 -1.04912,0.442847 -2.22067,0.984109 -2.04275,0.943748 -7.68609,3.076621 -9.03853,3.416061 -0.53972,0.135462 -0.91697,-0.07217 -2.25657,-1.24196 -4.33577,-3.786164 -10.65617,-5.451559 -16.33192,-4.303383 -6.20831,1.255907 -10.91262,4.889686 -13.80764,10.665512 -1.5373,3.067073 -2.25372,7.317435 -1.78214,10.573104 0.14825,1.023424 0.20732,1.922984 0.13128,1.999025 -0.24053,0.240531 -5.16356,-0.429866 -8.169573,-1.112497 -7.935327,-1.802022 -15.505303,-5.225693 -21.968522,-9.935695 -1.403204,-1.022569 -4.073176,-3.360015 -5.933276,-5.194322 -1.860097,-1.834305 -3.512578,-3.335103 -3.672176,-3.335103 -0.352516,0 -1.671886,2.832683 -2.284102,4.90396 -0.607982,2.056952 -0.615286,6.453705 -0.01441,8.676237 0.909556,3.364308 2.660842,6.352696 5.548613,9.468132 0.91655,0.988806 1.666454,1.865861 1.666454,1.949009 0,0.481261 -4.365916,-0.505905 -6.060161,-1.370244 -1.713995,-0.874414 -1.831464,-0.769492 -1.644774,1.469088 0.643552,7.716747 5.375093,13.810267 12.617521,16.249487 0.859966,0.28963 1.583405,0.63974 1.607644,0.77801 0.07529,0.42954 -1.502295,0.63508 -4.37971,0.57063 -2.328023,-0.0522 -2.775259,-5.1e-4 -2.838472,0.32772 -0.113626,0.59001 1.790667,4.1969 3.068159,5.81135 2.979239,3.76506 7.489194,6.22851 13.033257,7.1191 0.518688,0.0833 0.943069,0.25659 0.943069,0.38504 0,0.39162 -3.422388,2.6643 -6.026298,4.00184 -6.031511,3.09817 -12.669823,4.58498 -18.724766,4.19386 -2.420404,-0.15634 -2.482041,-0.14723 -2.071569,0.30634 0.638133,0.70513 4.94825,2.88341 8.293412,4.19139 8.762927,3.42637 18.763256,4.59336 28.036262,3.27169 z"
         id="path31"
         inkscape:connector-curvature="0" />
      <path
         style="fill:#7ec0f3;stroke-width:1"
         d="M 43.720997,108.01191 V 43.631714 h 64.380193 64.3802 v 64.380196 64.38019 h -64.3802 -64.380193 z m 53.314849,39.36956 c 16.223794,-1.96007 30.510274,-10.76821 39.642914,-24.44135 5.80763,-8.69504 8.75474,-17.99324 9.29292,-29.319415 l 0.17596,-3.703089 1.53569,-1.316482 c 4.09364,-3.509319 7.44558,-7.154822 7.44558,-8.09767 0,-0.500257 0.12164,-0.508081 -1.65815,0.106635 -1.43097,0.494236 -5.35697,1.535347 -7.11075,1.885655 -1.09989,0.219698 -0.98557,-0.0032 0.84712,-1.652111 2.24499,-2.019803 3.80452,-3.93439 4.78382,-5.872948 0.90188,-1.785333 1.09376,-2.669675 0.57924,-2.669675 -0.16245,0 -1.63207,0.57364 -3.26581,1.274753 -3.10111,1.330824 -7.78154,3.000494 -8.41101,3.000494 -0.20116,0 -1.06963,-0.595962 -1.92995,-1.324359 -1.74712,-1.47922 -4.88602,-3.19837 -6.9458,-3.804155 -11.0798,-3.258592 -22.52607,3.656136 -24.82385,14.996167 -0.32082,1.583315 -0.385,2.783352 -0.27056,5.059318 l 0.15001,2.983675 -1.43502,-0.169094 C 102.79159,93.982391 96.714488,92.651745 93.949233,91.758397 84.664379,88.75881 77.062129,84.087824 70.33124,77.246985 c -1.689397,-1.716994 -2.799089,-2.66288 -2.987451,-2.546468 -0.490587,0.303201 -1.963879,3.723897 -2.398042,5.567791 -0.300302,1.275379 -0.370844,2.456104 -0.275243,4.606968 0.144382,3.248343 0.753582,5.401697 2.321234,8.204922 0.913633,1.633728 3.30644,4.754465 4.492516,5.859211 0.360011,0.335325 0.654563,0.700293 0.654563,0.81104 0,0.411541 -4.457017,-0.74464 -6.107139,-1.584228 -0.523432,-0.266323 -1.060982,-0.416681 -1.194554,-0.334129 -0.369788,0.22854 -0.290188,2.678828 0.157421,4.845838 1.316531,6.37374 5.364273,10.95532 11.869892,13.43536 2.70343,1.0306 2.308576,1.28161 -2.01596,1.28161 -1.77715,0 -3.28841,0.0926 -3.358355,0.20578 -0.24084,0.38969 1.617477,3.97955 3.035073,5.86309 1.770098,2.35191 3.628936,3.86013 6.541345,5.30751 2.160833,1.07386 5.551109,2.12578 6.851285,2.12578 0.949434,0 0.580045,0.50994 -1.322435,1.8256 -3.7441,2.58924 -8.969466,4.80909 -13.82786,5.87439 -1.410017,0.30917 -3.395356,0.46269 -6.636491,0.51317 -2.543535,0.0396 -4.6714,0.11882 -4.72859,0.17601 -0.462161,0.46216 6.416543,3.91695 10.736368,5.39228 3.69561,1.26215 7.685268,2.20972 11.191089,2.65798 3.61824,0.46263 10.073632,0.48381 13.70594,0.045 z"
         id="path29"
         inkscape:connector-curvature="0" />
      <path
         style="fill:#6cb7f1;stroke-width:1"
         d="M 43.720997,108.01191 V 43.631714 h 64.380193 64.3802 v 64.380196 64.38019 h -64.3802 -64.380193 z m 53.566334,39.45733 c 5.759899,-0.67531 11.969119,-2.53597 17.518849,-5.24973 14.57182,-7.12546 25.47452,-20.44697 29.49449,-36.03797 1.04223,-4.04215 1.52563,-7.508625 1.69792,-12.175827 l 0.15034,-4.072532 1.56278,-1.267953 c 1.78464,-1.447956 6.08231,-5.753834 7.03182,-7.045246 0.35028,-0.4764 0.63687,-1.026796 0.63687,-1.223098 0,-0.443881 -0.44321,-0.361763 -4.27525,0.792121 -1.59064,0.478966 -3.45792,0.951806 -4.1495,1.050755 l -1.25743,0.179907 1.95566,-1.817138 c 2.93662,-2.728626 5.19235,-6.134834 5.20614,-7.86141 0.007,-0.849288 -0.18775,-0.856994 -1.74271,-0.06903 -1.57122,0.796197 -5.58464,2.383707 -8.23267,3.256436 l -2.05912,0.67864 -1.96464,-1.564014 c -2.14536,-1.707886 -5.13594,-3.257238 -7.49731,-3.884198 -0.8299,-0.220346 -2.64522,-0.464654 -4.03405,-0.542908 -9.38393,-0.528753 -17.79221,5.801623 -20.10883,15.139432 -0.45899,1.850076 -0.60396,6.111929 -0.26012,7.646748 l 0.19192,0.856646 -1.85189,-0.1579 c -1.01853,-0.08684 -3.2099,-0.437267 -4.8697,-0.778718 C 88.376028,90.842337 78.149154,85.332424 70.321978,77.100523 68.995683,75.705648 67.72285,74.564386 67.49346,74.564386 c -0.273673,0 -0.714837,0.644471 -1.283109,1.874422 -1.283066,2.777027 -1.71086,4.668404 -1.709087,7.55627 0.0032,5.19297 1.900198,9.571341 6.055385,13.976058 1.392981,1.47663 1.557847,1.741763 1.083089,1.741763 -0.90337,0 -3.535483,-0.741081 -5.087531,-1.432416 -2.08267,-0.927689 -2.317359,-0.753442 -2.107303,1.564597 0.44107,4.86738 2.138871,8.65942 5.296518,11.82978 2.404799,2.41448 4.256514,3.52704 8.300247,4.98703 1.075124,0.38818 -0.288516,0.66667 -3.136515,0.64057 -1.590644,-0.0146 -3.03354,-0.0173 -3.206436,-0.006 -0.503538,0.0328 -0.368554,0.78525 0.452012,2.51978 2.730895,5.77265 7.714986,9.56942 14.334449,10.91967 0.876562,0.1788 1.630145,0.43428 1.67463,0.56774 0.110882,0.33265 -3.337251,2.56263 -6.087329,3.9368 -5.484076,2.74031 -9.861446,3.76901 -16.280519,3.82597 -2.453396,0.0218 -4.531078,0.10994 -4.617071,0.19594 -0.239158,0.23915 2.488978,1.89764 5.311925,3.22922 9.576486,4.51722 20.151388,6.22624 30.800516,4.97772 z"
         id="path27"
         inkscape:connector-curvature="0" />
      <path
         style="fill:#54acf0;stroke-width:1"
         d="M 43.720997,108.01191 V 43.631714 h 64.380193 64.3802 v 64.380196 64.38019 h -64.3802 -64.380193 z m 52.507433,39.72624 c 17.29147,-1.84021 32.82352,-11.68154 41.86234,-26.5246 5.0763,-8.33601 7.62841,-17.03084 8.13058,-27.700224 l 0.16751,-3.55898 1.69209,-1.409494 c 2.31673,-1.929814 6.63958,-6.408968 7.16395,-7.422989 0.68566,-1.325915 0.22893,-1.481119 -2.05998,-0.700016 -2.31378,0.789593 -5.74252,1.687093 -6.44524,1.687093 -0.37101,0 -0.1004,-0.360227 1.05837,-1.408853 2.66706,-2.413548 5.31819,-6.432901 5.31878,-8.063755 2.5e-4,-0.844635 -0.46795,-0.821715 -2.51025,0.122876 -2.42785,1.122916 -7.13086,2.908971 -8.75786,3.325956 l -1.26399,0.323951 -1.32176,-1.188376 c -7.75481,-6.972241 -20.20067,-6.250009 -27.46251,1.593647 -3.689,3.98456 -5.4344,8.973256 -5.13371,14.673121 l 0.14431,2.735419 -1.30394,-0.166008 c -3.29115,-0.419002 -9.152879,-1.755811 -12.243551,-2.792224 -1.867277,-0.626165 -5.092574,-1.96773 -7.167326,-2.981251 -6.333495,-3.093931 -10.899424,-6.381908 -15.556934,-11.202722 -1.727638,-1.788215 -2.858143,-2.76982 -3.13015,-2.717875 -0.601485,0.114863 -1.966919,3.005262 -2.597286,5.498023 -0.447068,1.767915 -0.511681,2.579113 -0.398894,5.00806 0.228116,4.912654 1.948472,8.752093 5.834253,13.020703 1.241808,1.364151 1.356863,1.571782 0.870988,1.571782 -0.780019,0 -3.937873,-0.962227 -5.102299,-1.554716 -1.403186,-0.713979 -1.673143,-0.503267 -1.673143,1.30594 0,4.882242 2.294288,9.989172 5.983463,13.318782 1.528959,1.37995 5.311761,3.58845 7.093764,4.14153 1.086771,0.3373 -1.602008,0.67127 -3.957478,0.49154 -2.615121,-0.19953 -2.711246,-0.0306 -1.469951,2.58321 2.885903,6.07689 7.784245,9.85193 14.49712,11.17261 0.820976,0.16152 1.492685,0.36811 1.492685,0.4591 0,0.23682 -2.860925,2.08504 -5.049982,3.2624 -2.6204,1.40936 -5.410178,2.4817 -8.778856,3.37443 -2.719581,0.72071 -3.206773,0.77082 -8.043566,0.82735 -2.831753,0.0331 -5.182749,0.16249 -5.224435,0.28755 -0.134654,0.40396 0.754227,1.00173 3.960206,2.66323 5.868899,3.04155 11.955332,4.93166 18.735643,5.81826 3.122535,0.40831 9.404025,0.47065 12.647039,0.12552 z"
         id="path25"
         inkscape:connector-curvature="0" />
      <path
         style="fill:#4faaf0;stroke-width:1"
         d="M 43.720997,108.01191 V 43.631714 h 64.380193 64.3802 v 64.380196 64.38019 h -64.3802 -64.380193 z m 51.950874,39.9703 c 10.730979,-1.04423 21.203679,-5.26683 29.699609,-11.97492 12.82491,-10.12608 20.92179,-26.60197 20.9634,-42.657271 l 0.008,-3.067812 2.40967,-2.011881 c 2.71665,-2.268185 6.17833,-5.980435 6.80792,-7.300704 0.73865,-1.548965 0.2758,-1.603764 -3.50626,-0.415122 -1.83597,0.577015 -3.73421,1.120261 -4.21832,1.207214 l -0.8802,0.158097 1.77735,-1.854444 c 2.78311,-2.903844 4.20516,-5.17397 4.53563,-7.240594 0.15514,-0.970182 0.12972,-1.026724 -0.46151,-1.026724 -0.34413,0 -1.58423,0.442848 -2.75578,0.984109 -2.41367,1.115118 -8.29147,3.291139 -8.88992,3.291139 -0.21746,0 -1.09632,-0.573163 -1.95304,-1.273697 -2.06873,-1.691582 -6.06647,-3.623149 -8.52578,-4.119357 -3.83016,-0.772796 -8.4108,-0.403012 -11.75866,0.949248 -4.76087,1.923004 -8.98386,6.032369 -10.89903,10.605785 -1.24366,2.969856 -1.53895,4.547216 -1.54176,8.235545 -0.002,3.068355 -0.0502,3.45792 -0.42473,3.45792 -0.8026,0 -6.289376,-1.003694 -8.317493,-1.52152 -5.756366,-1.469729 -13.049289,-4.660057 -17.80606,-7.789352 -3.398845,-2.235967 -7.151551,-5.390765 -9.713516,-8.165891 -1.445202,-1.565445 -2.389877,-2.390562 -2.736952,-2.390562 -0.638916,0 -1.773089,2.131693 -2.676065,5.029702 -0.76342,2.450119 -0.832028,7.044519 -0.142705,9.556435 0.881612,3.21263 2.680695,6.364051 5.217975,9.14024 0.714864,0.782174 1.146936,1.420793 0.960161,1.419151 -0.735152,-0.0065 -3.178943,-0.764419 -4.529529,-1.404861 -1.858081,-0.881096 -2.222933,-0.73146 -2.222933,0.911681 0,3.120116 1.011168,6.941376 2.593536,9.801116 0.420939,0.76074 1.735412,2.3503 2.921053,3.53234 1.839712,1.83414 2.551998,2.34591 4.859173,3.49123 1.486906,0.73813 2.703465,1.40092 2.703465,1.47288 0,0.072 -1.348242,0.063 -2.996093,-0.0198 -3.543655,-0.17817 -3.598544,-0.13499 -2.689453,2.11569 1.29499,3.20608 3.772687,6.43681 6.435626,8.39159 2.334589,1.71375 7.10327,3.64975 8.989914,3.64975 0.97395,0 0.638971,0.46263 -1.178489,1.62759 -6.81955,4.37123 -15.440325,6.66501 -22.393187,5.95828 -1.31401,-0.13356 -2.473985,-0.19081 -2.577723,-0.12723 -0.103738,0.0636 -0.188614,0.33027 -0.188614,0.59264 0,0.32385 0.545089,0.79377 1.697525,1.46341 9.975434,5.79642 21.992428,8.42942 33.403845,7.31898 z"
         id="path23"
         inkscape:connector-curvature="0" />
    </g>
  </g>
</svg>
