<?xml version="1.0" encoding="UTF-8" standalone="no"?>
<!-- Created with Inkscape (http://www.inkscape.org/) -->

<svg
   xmlns:dc="http://purl.org/dc/elements/1.1/"
   xmlns:cc="http://creativecommons.org/ns#"
   xmlns:rdf="http://www.w3.org/1999/02/22-rdf-syntax-ns#"
   xmlns:svg="http://www.w3.org/2000/svg"
   xmlns="http://www.w3.org/2000/svg"
   xmlns:sodipodi="http://sodipodi.sourceforge.net/DTD/sodipodi-0.dtd"
   xmlns:inkscape="http://www.inkscape.org/namespaces/inkscape"
   width="128.76039mm"
   height="128.76039mm"
   viewBox="0 0 128.76039 128.76039"
   version="1.1"
   id="svg45"
   inkscape:version="0.92.2 (5c3e80d, 2017-08-06)"
   sodipodi:docname="youtube.svg">
  <defs
     id="defs39" />
  <sodipodi:namedview
     id="base"
     pagecolor="#ffffff"
     bordercolor="#666666"
     borderopacity="1.0"
     inkscape:pageopacity="0.0"
     inkscape:pageshadow="2"
     inkscape:zoom="0.35"
     inkscape:cx="-140.95896"
     inkscape:cy="223.32668"
     inkscape:document-units="mm"
     inkscape:current-layer="layer1"
     showgrid="false"
     fit-margin-top="0"
     fit-margin-left="0"
     fit-margin-right="0"
     fit-margin-bottom="0"
     inkscape:window-width="1920"
     inkscape:window-height="1018"
     inkscape:window-x="-8"
     inkscape:window-y="-8"
     inkscape:window-maximized="1" />
  <metadata
     id="metadata42">
    <rdf:RDF>
      <cc:Work
         rdf:about="">
        <dc:format>image/svg+xml</dc:format>
        <dc:type
           rdf:resource="http://purl.org/dc/dcmitype/StillImage" />
        <dc:title></dc:title>
      </cc:Work>
    </rdf:RDF>
  </metadata>
  <g
     inkscape:label="Layer 1"
     inkscape:groupmode="layer"
     id="layer1"
     transform="translate(-32.381701,-79.161477)">
    <g
       id="g58"
       transform="translate(1.9047619e-6,0.75595238)">
      <path
         style="fill:#fdfcfc;stroke-width:1"
         d="M 32.381699,142.78572 V 78.405525 h 64.380195 64.380196 v 64.380195 64.38019 H 96.761894 32.381699 Z"
         id="path74"
         inkscape:connector-curvature="0" />
      <path
         style="fill:#f5d4ce;stroke-width:1"
         d="M 32.381699,142.78572 V 78.405525 h 64.380195 64.380196 v 64.380195 64.38019 H 96.761894 32.381699 Z m 81.229701,46.03287 c 11.50025,-0.19004 12.00522,-0.21859 13.54638,-0.76585 3.08949,-1.09709 5.58048,-3.53728 6.86973,-6.72964 l 0.5829,-1.44332 0.0737,-15.53974 c 0.0475,-10.02801 -0.0194,-16.0489 -0.18868,-16.97525 -0.56879,-3.11234 -2.95363,-6.40945 -5.61014,-7.75619 -3.03361,-1.53791 -1.67163,-1.47536 -32.123366,-1.47536 -30.451737,0 -29.089754,-0.0625 -32.123366,1.47536 -2.656513,1.34674 -5.041349,4.64385 -5.610143,7.75619 -0.169292,0.92635 -0.236212,6.94724 -0.188674,16.97525 l 0.07367,15.53974 0.582895,1.44332 c 1.286819,3.18634 3.765927,5.61838 6.869731,6.73931 1.539386,0.55595 1.996654,0.58428 11.911729,0.73793 15.139547,0.23461 22.024914,0.23816 35.333664,0.0183 z m 6.46757,-7.81745 c -1.45137,-0.36115 -2.24633,-0.85087 -3.38309,-2.08411 -1.68673,-1.82989 -1.87947,-2.80974 -2.01492,-10.24363 -0.16261,-8.92471 0.17681,-10.76671 2.36705,-12.84562 1.6547,-1.57059 2.42988,-1.85106 5.11388,-1.85028 1.98502,5.1e-4 2.56577,0.0951 3.4336,0.55855 2.86574,1.53055 3.85702,4.80747 3.40638,11.26056 l -0.17562,2.51485 -4.27525,0.12574 -4.27525,0.12575 v 3.18074 c 0,2.7752 0.0611,3.24815 0.47908,3.70941 0.61099,0.67423 1.69676,0.67818 2.30292,0.008 0.34834,-0.38492 0.50569,-1.05557 0.60482,-2.57773 l 0.13398,-2.05746 2.45669,-0.072 c 2.96074,-0.0868 2.91663,-0.14155 2.66452,3.30619 -0.18426,2.51982 -0.84292,4.2709 -2.01876,5.36692 -1.41513,1.31908 -4.75048,2.08872 -6.82003,1.57375 z m 3.55019,-19.25559 c -0.0827,-1.63675 -0.18157,-1.98221 -0.68407,-2.3891 -0.7403,-0.59946 -1.32551,-0.60234 -2.05688,-0.0101 -0.45523,0.36862 -0.59813,0.78603 -0.68627,2.0046 -0.16178,2.23648 -0.1043,2.30805 1.85381,2.30805 h 1.67003 z m -41.908637,18.50501 c -1.658185,-1.01097 -1.673486,-1.1293 -1.761447,-13.62284 -0.05516,-7.83401 0.0047,-11.39677 0.19742,-11.75693 0.247238,-0.46196 0.514026,-0.51675 2.516237,-0.51675 1.515573,0 2.305455,0.10163 2.443131,0.31435 0.111901,0.1729 0.26004,4.89768 0.329199,10.49951 l 0.125742,10.18515 0.671131,0.0776 c 0.462479,0.0535 0.931592,-0.15505 1.508911,-0.67072 l 0.83778,-0.74833 0.125743,-9.76591 0.125742,-9.76591 2.225365,-0.073 c 1.424499,-0.0467 2.35217,0.0322 2.577722,0.21941 0.525184,0.43586 0.525184,25.17434 0,25.61021 -0.225552,0.18719 -1.153223,0.26615 -2.577722,0.2194 l -2.225365,-0.073 -0.07805,-0.94307 c -0.04293,-0.51869 -0.139761,-0.94307 -0.215181,-0.94307 -0.07542,0 -0.492971,0.30042 -0.927887,0.6676 -1.881516,1.58847 -4.334032,2.04016 -5.898468,1.08635 z m 23.628367,0.25374 c -0.32571,-0.13783 -0.90348,-0.47224 -1.28392,-0.74314 l -0.69172,-0.49255 -0.28247,0.61994 c -0.26972,0.59198 -0.38437,0.61994 -2.54237,0.61994 -1.976922,0 -2.292508,-0.0609 -2.520243,-0.48644 -0.171966,-0.32132 -0.260332,-6.16256 -0.260332,-17.20877 0,-14.8668 0.04385,-16.76618 0.395191,-17.11752 0.560998,-0.561 4.181294,-0.561 4.742294,0 0.33142,0.33143 0.39519,1.16326 0.39519,5.15545 0,2.61814 0.0516,4.76025 0.11457,4.76025 0.063,0 0.51945,-0.27475 1.01429,-0.61056 2.80096,-1.90078 6.06464,-0.6593 7.03417,2.67575 0.35375,1.21688 0.40064,2.68756 0.33638,10.55112 l -0.0747,9.13716 -0.62871,1.1094 c -0.92296,1.62863 -1.72581,2.12302 -3.58637,2.20848 -0.863,0.0396 -1.83557,-0.0407 -2.16129,-0.17851 z m 0.66766,-4.82432 c 0.22156,-0.22157 0.30178,-2.34594 0.30178,-7.99157 0,-6.55284 -0.0579,-7.77243 -0.39149,-8.24871 -0.46796,-0.66812 -1.51003,-0.73677 -2.16643,-0.14273 -0.42641,0.3859 -0.4599,0.97516 -0.4599,8.0906 0,6.78818 0.0481,7.72749 0.4162,8.13429 0.47247,0.52206 1.84175,0.6162 2.29984,0.15812 z m -36.364754,4.52673 c -0.227697,-0.2277 -0.301782,-3.83934 -0.301782,-14.71188 v -14.4101 h -2.242797 c -1.23354,0 -2.421807,-0.0687 -2.640594,-0.15265 -0.324881,-0.12467 -0.397797,-0.59947 -0.397797,-2.5903 0,-1.56063 0.108574,-2.54622 0.301782,-2.73943 0.351984,-0.35198 15.444248,-0.43574 15.991146,-0.0888 0.237987,0.151 0.304533,0.89863 0.251485,2.82536 l -0.07214,2.62003 -2.577723,0.0717 -2.577723,0.0717 v 14.40129 c 0,10.8657 -0.07409,14.4754 -0.301782,14.70309 -0.411045,0.41104 -5.021034,0.41104 -5.432079,0 z m 27.518817,-50.02292 c 1.380761,-0.71057 2.714156,-2.2966 3.100607,-3.68809 0.15261,-0.5495 0.26015,-4.05538 0.26015,-8.48127 0,-4.42588 -0.10754,-7.93176 -0.26015,-8.48127 -0.676585,-2.43615 -3.366651,-4.47021 -5.911912,-4.47021 -1.825156,0 -3.326323,0.59783 -4.574841,1.82191 -1.879389,1.84259 -1.950295,2.24723 -1.950295,11.12957 0,8.65513 0.0581,9.04913 1.583234,10.73728 2.03073,2.24777 5.075365,2.81014 7.753207,1.43208 z m -4.383522,-3.61626 -0.803415,-0.67603 0.008,-7.83655 c 0.0084,-8.23604 0.01861,-8.31391 1.170024,-8.92716 0.859305,-0.45767 1.748971,-0.34656 2.517361,0.31438 l 0.705607,0.60693 v 7.93657 c 0,7.67804 -0.01687,7.95345 -0.518004,8.45458 -0.284902,0.2849 -0.913587,0.5822 -1.39708,0.66066 -0.711411,0.11544 -1.032314,0.0137 -1.682491,-0.53338 z m 17.212229,3.66343 c 0.57222,-0.25984 1.50503,-0.8922 2.07292,-1.40526 1.26344,-1.14144 1.73312,-1.03184 1.83839,0.429 l 0.078,1.08251 h 1.88613 1.88614 v -12.32278 -12.32277 h -1.88614 -1.88613 l -0.12575,9.5932 c -0.11982,9.14182 -0.14938,9.61931 -0.62812,10.14803 -1.11866,1.23545 -2.7471,1.61038 -3.47948,0.80111 -0.36642,-0.40489 -0.42074,-1.59527 -0.47907,-10.4995 l -0.0658,-10.04284 h -1.88614 -1.88614 l -0.0715,10.93961 c -0.0794,12.14374 -0.0163,12.80088 1.30673,13.60766 0.97924,0.59713 1.9988,0.59469 3.326,-0.008 z m -28.765298,-7.12395 0.09828,-7.35594 2.902994,-9.43069 c 1.596646,-5.18689 2.854844,-9.515574 2.795996,-9.619311 -0.05885,-0.103738 -1.054625,-0.188614 -2.212835,-0.188614 -1.786244,0 -2.126415,0.06679 -2.241434,0.440099 -0.07458,0.242054 -0.762787,3.095466 -1.529349,6.340916 -0.76656,3.24545 -1.505345,6.01241 -1.641743,6.14881 -0.160918,0.16092 -0.334002,0.16199 -0.492944,0.003 -0.134723,-0.13472 -0.909855,-3.07144 -1.722517,-6.52604 l -1.47757,-6.281043 -1.96466,-0.07418 c -1.080564,-0.0408 -2.101882,-0.02152 -2.269603,0.04284 -0.213999,0.08212 0.585639,3.088608 2.681237,10.080973 l 2.986179,9.96396 v 6.90558 6.90558 h 1.994846 1.994845 z"
         id="path72"
         inkscape:connector-curvature="0" />
      <path
         style="fill:#f2c3bb;stroke-width:1"
         d="M 32.381699,142.78572 V 78.405525 h 64.380195 64.380196 v 64.380195 64.38019 H 96.761894 32.381699 Z m 93.803951,45.7195 c 2.91884,-0.77326 5.15652,-2.34093 6.75213,-4.73038 1.979,-2.96356 1.92411,-2.38261 1.92411,-20.36734 0,-14.87328 -0.0318,-16.06068 -0.46398,-17.30066 -1.44697,-4.15193 -4.40003,-6.85134 -8.51306,-7.78184 -1.64683,-0.37256 -4.65909,-0.41554 -29.122956,-0.41554 -24.463871,0 -27.476124,0.043 -29.122955,0.41554 -4.113034,0.9305 -7.066096,3.62991 -8.513061,7.78184 -0.432137,1.23998 -0.463982,2.42738 -0.463982,17.30066 0,17.98473 -0.05488,17.40378 1.92411,20.36734 1.438206,2.15373 3.595639,3.77376 6.116254,4.59272 1.560662,0.50708 8.70249,0.62965 33.077456,0.5677 20.966344,-0.0533 25.246994,-0.123 26.405934,-0.43004 z m -6.28875,-7.71252 c -1.16457,-0.38419 -2.13067,-0.99009 -2.92517,-1.83453 -1.91697,-2.03748 -2.15946,-3.49967 -2.05765,-12.4071 0.0774,-6.77513 0.10298,-7.09133 0.67481,-8.35611 0.66675,-1.47469 2.36109,-3.17536 3.75898,-3.77301 1.45898,-0.62377 4.43747,-0.53711 5.83184,0.16967 2.09152,1.06016 2.95945,2.23942 3.48981,4.74163 0.29571,1.39514 0.39356,7.76739 0.12982,8.45467 -0.13086,0.34102 -0.75905,0.3978 -4.40099,0.3978 h -4.24834 v 3.50254 c 0,3.48431 0.003,3.50525 0.66263,4.02376 0.36444,0.28667 0.85844,0.52122 1.09777,0.52122 0.23933,0 0.73332,-0.23455 1.09777,-0.52122 0.60506,-0.47594 0.66296,-0.67804 0.66647,-2.32624 0.002,-0.99276 0.0965,-1.95097 0.20963,-2.12936 0.1499,-0.23626 0.8489,-0.30456 2.57388,-0.25148 l 2.36809,0.0729 -0.0536,2.23327 c -0.0885,3.6902 -1.15251,5.82539 -3.45949,6.94218 -1.22492,0.59298 -4.31973,0.90121 -5.41631,0.53945 z m 3.7739,-18.98087 c 0,-2.3876 -0.3751,-3.01489 -1.80283,-3.01489 -1.28976,0 -1.71796,0.78002 -1.71796,3.12951 v 1.98402 h 1.7604 1.76039 z m -41.164867,18.6787 c -0.966935,-0.28918 -1.747625,-1.22328 -2.092356,-2.50351 -0.159167,-0.59111 -0.230358,-5.13804 -0.189466,-12.10133 l 0.06551,-11.15443 h 2.389108 2.389109 l 0.125743,10.23569 c 0.09048,7.36538 0.208732,10.31861 0.421685,10.53139 0.403153,0.40282 1.386719,0.11919 2.325269,-0.67055 l 0.773838,-0.65114 0.0038,-9.47121 c 0.002,-5.20916 0.09657,-9.61735 0.209882,-9.79596 0.149242,-0.23524 0.824054,-0.30456 2.44813,-0.25149 l 2.242101,0.0733 v 12.7 12.7 l -2.242098,0.0733 c -2.42994,0.0794 -2.651096,-0.0261 -2.658012,-1.26782 -0.0046,-0.82872 -0.263368,-0.87473 -0.907942,-0.16143 -0.62953,0.69664 -2.547079,1.65818 -3.63653,1.8235 -0.476469,0.0723 -1.226986,0.0236 -1.667815,-0.10825 z m 22.256907,-0.49377 c -0.50972,-0.26923 -0.99737,-0.60373 -1.08365,-0.74334 -0.26654,-0.43127 -0.59129,-0.28128 -0.67555,0.312 -0.0769,0.54145 -0.18334,0.56584 -2.46947,0.56584 h -2.389108 l -0.06465,-16.94733 c -0.04795,-12.57006 0.01069,-17.03812 0.227066,-17.29883 0.217799,-0.26243 0.839578,-0.33323 2.453762,-0.2794 l 2.16204,0.0721 0.0681,5.09257 c 0.0374,2.80092 0.14453,5.09258 0.23796,5.09258 0.0934,0 0.60624,-0.30239 1.13956,-0.67198 1.93206,-1.33892 4.75642,-1.00729 6.03107,0.70816 1.09537,1.47417 1.19344,2.21531 1.35646,10.25049 0.21203,10.45095 -0.093,12.40144 -2.15669,13.79217 -1.10448,0.74431 -3.48063,0.77131 -4.83688,0.055 z m 1.41549,-4.32245 c 0.33263,-0.4749 0.39148,-1.66329 0.39148,-7.90541 0,-4.0428 -0.10767,-7.62969 -0.23944,-7.97627 -0.45449,-1.1954 -1.94146,-1.46136 -2.88653,-0.51629 -0.3417,0.3417 -0.39482,1.43871 -0.39482,8.15463 v 7.75983 l 0.66263,0.52122 c 0.88088,0.6929 1.96656,0.67631 2.46668,-0.0377 z m -36.455756,4.27719 c -0.06678,-0.17777 -0.149631,-6.7738 -0.184117,-14.65786 l -0.0627,-14.33465 -2.514852,-0.12575 -2.514851,-0.12574 v -2.51485 -2.51485 l 7.765836,-0.0665 c 5.520639,-0.0473 7.865451,0.0161 8.110395,0.2194 0.378066,0.31377 0.4948,4.12535 0.143284,4.67848 -0.124827,0.19642 -1.083561,0.33039 -2.699612,0.37723 l -2.506042,0.0726 -0.125743,14.58613 -0.125742,14.58614 -2.58222,0.0717 c -1.925868,0.0535 -2.613084,-0.0104 -2.703636,-0.25148 z M 97.35428,130.26427 c 1.246144,-0.67824 1.987261,-1.48071 2.83585,-3.07063 0.43145,-0.80837 0.46978,-1.55737 0.46978,-9.17921 0,-8.19074 -0.008,-8.31458 -0.58795,-9.49289 -1.574331,-3.19682 -5.657821,-4.58045 -8.794912,-2.98002 -1.291469,0.65886 -2.898803,2.49958 -3.272867,3.7481 -0.199682,0.66648 -0.294955,3.55092 -0.293295,8.87973 0.0025,7.73894 0.01388,7.91709 0.58925,9.15003 0.928186,1.98899 2.414003,3.1426 4.815224,3.7386 0.989878,0.2457 3.031585,-0.1366 4.23892,-0.79371 z m -4.539254,-3.92905 -0.705607,-0.60694 v -7.67181 -7.67181 l 0.609678,-0.64898 c 0.81276,-0.86514 2.075404,-0.87883 2.922544,-0.0317 l 0.617283,0.61728 v 7.69316 7.69316 l -0.617283,0.61728 c -0.799436,0.79944 -1.904537,0.80349 -2.826615,0.0103 z m 17.904294,3.74439 c 0.55327,-0.31611 1.28029,-0.86843 1.61562,-1.22738 0.87955,-0.94154 1.23471,-0.82998 1.32487,0.41616 l 0.0773,1.06882 h 2.13762 2.13763 v -12.32278 -12.32277 h -2.13763 -2.13762 l -0.12574,9.5932 c -0.13985,10.6695 -0.0482,10.13957 -1.90608,11.02119 -1.01487,0.48159 -1.75319,0.21162 -2.12972,-0.77872 -0.13653,-0.3591 -0.23945,-4.78432 -0.23945,-10.2956 v -9.66581 h -2.14943 -2.14943 l 0.0747,11.50544 c 0.0719,11.07227 0.0941,11.53859 0.59006,12.38565 0.90268,1.54161 2.96159,1.7971 5.01729,0.6226 z m -29.298019,-6.63702 v -7.02036 l 2.804602,-9.26331 c 1.542529,-5.09481 2.856811,-9.57451 2.920623,-9.954881 l 0.11602,-0.691584 H 84.86919 82.475836 l -0.928768,3.960895 c -1.790093,7.63415 -2.03033,8.48762 -2.389124,8.48762 -0.365327,0 -0.435843,-0.24907 -2.260607,-7.98465 l -1.052988,-4.463865 h -2.366971 c -1.79708,0 -2.366968,0.08021 -2.366968,0.333136 0,0.183224 1.301436,4.653659 2.892079,9.934299 l 2.892079,9.60117 v 7.04094 7.04095 h 2.263366 2.263367 z"
         id="path70"
         inkscape:connector-curvature="0" />
      <path
         style="fill:#eda89d;stroke-width:1"
         d="M 32.381699,142.78572 V 78.405525 h 64.380195 64.380196 v 64.380195 64.38019 H 96.761894 32.381699 Z m 92.798011,46.00871 c 4.72094,-0.75262 8.71709,-4.52156 9.55511,-9.01185 0.36393,-1.94999 0.33714,-31.0423 -0.0302,-32.77211 -0.87254,-4.10908 -4.11401,-7.53298 -8.19738,-8.65872 -1.61774,-0.44599 -3.13645,-0.46999 -29.745376,-0.46999 -26.608923,0 -28.127634,0.024 -29.745375,0.46999 -4.083369,1.12574 -7.324837,4.54964 -8.19738,8.65872 -0.3679,1.73257 -0.394177,30.83118 -0.02958,32.75371 0.757375,3.99362 4.02292,7.51236 8.171343,8.80492 0.646113,0.20131 3.794599,0.37988 8.80198,0.4992 10.762794,0.25648 47.362458,0.0536 49.416828,-0.27387 z m -4.69177,-8.04877 c -2.29499,-0.44548 -3.71725,-1.5581 -4.6471,-3.63535 -0.49213,-1.09942 -0.58891,-1.90638 -0.78378,-6.53548 -0.12228,-2.90466 -0.15762,-6.58263 -0.0785,-8.17327 0.12652,-2.54487 0.2353,-3.07908 0.90602,-4.44968 1.24087,-2.53571 3.37858,-3.84933 6.26416,-3.84933 2.07019,0 3.57488,0.59551 4.76383,1.88536 1.52842,1.65814 1.81502,2.97339 1.73151,7.94613 l -0.0693,4.12594 -4.27524,0.12574 -4.27525,0.12574 -0.073,2.89208 c -0.0401,1.59064 -0.009,3.14959 0.0693,3.46432 0.36001,1.44821 2.02447,2.02218 3.17126,1.09357 0.49982,-0.40473 0.60211,-0.77124 0.71944,-2.57772 l 0.13678,-2.10591 h 2.26337 2.26336 l -0.002,2.38911 c -0.002,3.04024 -0.48367,4.38801 -2.06427,5.77931 -1.5177,1.33594 -3.85908,1.91905 -6.02075,1.49944 z m 3.38276,-18.64914 c 0.0511,-1.16304 -0.0481,-1.92466 -0.31893,-2.44833 -0.68955,-1.33344 -2.58663,-1.34609 -3.27144,-0.0218 -0.38924,0.7527 -0.53958,3.79101 -0.20418,4.12641 0.0977,0.0977 0.97475,0.14485 1.94901,0.10479 l 1.77139,-0.0729 z M 81.801969,179.9633 c -1.320768,-1.03892 -1.34015,-1.224 -1.412084,-13.48468 -0.04428,-7.54666 0.02032,-11.46557 0.191828,-11.63707 0.147133,-0.14714 1.115427,-0.22663 2.246612,-0.18444 l 1.988025,0.0742 0.154515,3.01783 c 0.08498,1.6598 0.169861,6.24877 0.188614,10.19772 0.02475,5.20938 0.116923,7.26272 0.335881,7.48168 0.540381,0.54038 1.437082,0.31993 2.460867,-0.605 l 1.003703,-0.90679 0.06583,-9.59272 0.06583,-9.59272 1.972851,-0.0739 c 1.238076,-0.0464 2.104465,0.0353 2.326237,0.2194 0.526879,0.43727 0.526879,24.67167 0,25.10895 -0.221772,0.18405 -1.088161,0.26577 -2.326237,0.2194 l -1.972851,-0.0739 -0.07733,-1.06881 c -0.09228,-1.27543 -0.435718,-1.35381 -1.421855,-0.32451 -1.620263,1.69119 -4.439718,2.28784 -5.790442,1.22536 z m 23.556591,0.17717 c -0.45871,-0.2069 -1.1294,-0.60854 -1.49043,-0.89253 l -0.65641,-0.51634 -0.3207,0.76271 c -0.31919,0.75914 -0.33009,0.7627 -2.33586,0.7627 -1.734958,0 -2.051374,-0.0676 -2.275508,-0.48644 -0.171852,-0.32111 -0.260332,-6.08444 -0.260332,-16.95729 0,-14.63818 0.04397,-16.51481 0.395191,-16.86603 0.554276,-0.55428 3.685049,-0.55428 4.239319,0 0.33215,0.33214 0.39519,1.17468 0.39519,5.28119 0,2.68729 0.0641,4.88599 0.14252,4.88599 0.0784,0 0.52221,-0.2896 0.98627,-0.64355 1.79459,-1.3688 4.042,-1.38854 5.56777,-0.0489 1.68097,1.47591 1.70617,1.63141 1.80321,11.12908 0.0481,4.70277 0.0151,9.13891 -0.0732,9.8581 -0.17355,1.41333 -0.86035,2.62593 -1.94039,3.42593 -0.88562,0.65599 -3.04871,0.81414 -4.17663,0.30537 z m 0.8969,-4.35791 c 0.23627,-0.30058 0.31435,-2.35558 0.31435,-8.27362 0,-7.5384 -0.0214,-7.89513 -0.50297,-8.37669 -0.62034,-0.62034 -1.77733,-0.64952 -2.49317,-0.0629 -0.53075,0.43497 -0.53621,0.53401 -0.46796,8.48763 l 0.0691,8.04752 0.87757,0.43793 c 0.94245,0.4703 1.69931,0.38102 2.20313,-0.2599 z m -36.352179,4.17266 c -0.227697,-0.22769 -0.301782,-3.83934 -0.301782,-14.71188 v -14.4101 h -2.242797 c -1.23354,0 -2.421807,-0.0687 -2.640594,-0.15264 -0.32131,-0.1233 -0.397797,-0.58097 -0.397797,-2.38027 0,-1.94498 0.06171,-2.26064 0.486438,-2.48794 0.524751,-0.28084 14.041064,-0.37023 15.051496,-0.0995 0.554605,0.14857 0.572078,0.238 0.50297,2.57428 l -0.0716,2.42037 -2.577723,0.0717 -2.577723,0.0717 v 14.4013 c 0,10.8657 -0.07409,14.47539 -0.301782,14.70308 -0.407579,0.40758 -4.521529,0.40758 -4.929109,0 z M 96.887637,130.6257 c 1.511586,-0.7054 2.918897,-2.19823 3.495383,-3.70779 0.37085,-0.97111 0.41393,-2.11359 0.3499,-9.2807 -0.0812,-9.08841 -0.0982,-9.18766 -1.884348,-10.97379 -1.217422,-1.21742 -2.243441,-1.66085 -4.160251,-1.798 -2.895693,-0.20718 -5.075848,1.0032 -6.430201,3.56994 l -0.675433,1.28006 v 8.17327 8.17327 l 0.707568,1.44091 c 1.184588,2.41231 3.193439,3.65747 5.956788,3.69222 0.951147,0.012 1.775915,-0.16588 2.640594,-0.56939 z m -3.520792,-3.97394 c -1.119937,-0.61256 -1.131683,-0.70282 -1.131683,-8.69682 v -7.63367 l 0.617282,-0.61728 c 0.830517,-0.83052 1.764206,-0.78933 2.671369,0.11783 l 0.735111,0.73511 v 7.4575 7.45751 l -0.735111,0.73511 c -0.77848,0.77848 -1.336425,0.89351 -2.156968,0.44471 z m 16.543225,3.97355 c 0.44509,-0.18733 1.34778,-0.75317 2.00598,-1.25742 0.6582,-0.50425 1.30241,-0.91682 1.43158,-0.91682 0.12917,0 0.26965,0.48096 0.31218,1.06881 l 0.0773,1.06881 h 2.13762 2.13763 v -12.57426 -12.57425 h -2.13763 -2.13762 l -0.0658,9.59272 -0.0658,9.59272 -1.0037,0.90678 c -1.04156,0.94099 -2.28217,1.21473 -2.68493,0.59243 -0.11191,-0.1729 -0.26005,-4.89767 -0.3292,-10.4995 l -0.12575,-10.18515 h -2.13762 -2.13762 v 11.73866 c 0,11.52519 0.01,11.75157 0.52721,12.44851 0.97797,1.31677 2.55031,1.69071 4.19621,0.99796 z m -28.539066,-0.21266 c 0.220452,-0.22045 0.301782,-2.2132 0.301782,-7.39427 v -7.09249 l 2.89857,-9.59449 c 1.594214,-5.27696 2.832389,-9.701569 2.751496,-9.832455 -0.227408,-0.367953 -4.53474,-0.299776 -4.82568,0.07638 -0.133728,0.172896 -0.846615,2.917228 -1.584196,6.098515 -0.737583,3.18129 -1.438917,5.89638 -1.558521,6.03354 -0.367815,0.4218 -0.547257,-0.14151 -1.941395,-6.0945 -0.737176,-3.147761 -1.452186,-5.864659 -1.588911,-6.037555 -0.291051,-0.368046 -4.601468,-0.447986 -4.823057,-0.08945 -0.07645,0.1237 1.185013,4.565565 2.803252,9.870795 l 2.942255,9.64588 0.08244,7.04159 c 0.04534,3.87287 0.131665,7.18304 0.191833,7.35594 0.146983,0.42236 3.92941,0.43329 4.350132,0.0126 z"
         id="path68"
         inkscape:connector-curvature="0" />
      <path
         style="fill:#e78777;stroke-width:1"
         d="M 32.381699,142.78572 V 78.405525 h 64.380195 64.380196 v 64.380195 64.38019 H 96.761894 32.381699 Z m 93.809241,45.97336 c 0.76365,-0.19896 1.95192,-0.63686 2.6406,-0.9731 1.62025,-0.79109 4.16012,-3.30191 4.95208,-4.89545 1.33892,-2.69409 1.33007,-2.5624 1.32559,-19.73451 -0.004,-15.79188 -0.0103,-15.98537 -0.55219,-17.41503 -1.58361,-4.1777 -4.81071,-6.92451 -9.12582,-7.76762 -2.37007,-0.46308 -54.968545,-0.46308 -57.338612,0 -4.31511,0.84311 -7.54221,3.58992 -9.125824,7.76762 -0.541931,1.42966 -0.548067,1.62315 -0.552186,17.41503 -0.0045,17.06379 -0.0048,17.05824 1.266884,19.61584 1.212739,2.43902 3.820808,4.70308 6.528893,5.66771 1.992142,0.70961 6.79405,0.81592 33.695103,0.74599 20.691362,-0.0538 25.131572,-0.12583 26.285482,-0.42648 z m -6.29404,-8.21913 c -1.74232,-0.5713 -3.09294,-1.6882 -3.84329,-3.17824 -0.80143,-1.59148 -0.96997,-3.64312 -0.88804,-10.81064 0.0769,-6.73014 0.10611,-7.0972 0.65981,-8.29901 1.2269,-2.663 3.3254,-3.98161 6.33651,-3.98161 1.55468,0 2.12029,0.11966 3.21856,0.68088 2.5951,1.32614 3.42074,3.74286 3.27553,9.58785 l -0.0812,3.26931 -4.27524,0.12574 -4.27525,0.12575 -0.0711,3.39505 c -0.0779,3.7202 0.0722,4.30992 1.21786,4.78446 0.8312,0.34429 1.57644,0.15399 2.2568,-0.57629 0.38638,-0.41473 0.4953,-0.8914 0.49831,-2.18084 0.002,-0.90756 0.0967,-1.79644 0.21016,-1.9753 0.14849,-0.23408 0.79923,-0.30454 2.32238,-0.25149 l 2.11608,0.0737 -0.061,2.16369 c -0.0985,3.49234 -1.05636,5.4109 -3.2478,6.50536 -1.27207,0.6353 -4.18663,0.92932 -5.36902,0.54162 z m 3.97155,-18.65191 c 0.0675,-2.01809 0.0334,-2.18434 -0.5638,-2.74538 -0.82446,-0.77454 -1.96034,-0.77801 -2.77946,-0.008 -0.56859,0.53416 -0.62666,0.77888 -0.62666,2.6406 0,1.12853 0.0799,2.1318 0.17762,2.2295 0.0977,0.0977 0.97475,0.14484 1.94901,0.10478 l 1.77139,-0.0728 z m -41.107516,18.45293 c -0.815526,-0.16994 -1.808022,-1.28495 -2.096123,-2.35489 -0.158775,-0.58965 -0.230084,-5.10173 -0.189243,-11.97475 l 0.06554,-11.02858 h 2.137623 2.137624 l 0.125743,10.11354 c 0.111832,8.9948 0.172071,10.15984 0.544555,10.53211 0.554143,0.55382 1.455959,0.3173 2.591432,-0.67966 l 0.881842,-0.77427 0.06584,-9.59586 0.06584,-9.59586 2.200495,-0.0727 2.200495,-0.0727 v 12.59384 12.59384 l -2.200495,-0.0727 -2.200495,-0.0727 -0.07733,-1.06881 c -0.04253,-0.58785 -0.136655,-1.06882 -0.209161,-1.06882 -0.0725,0 -0.603549,0.382 -1.180094,0.84888 -1.787204,1.44728 -3.448432,2.04493 -4.864077,1.74994 z m 21.711756,-0.83842 c -1.4253,-0.9039 -1.61598,-0.92481 -1.72053,-0.18861 -0.0761,0.53611 -0.19266,0.56584 -2.21799,0.56584 h -2.137623 v -16.97525 -16.97525 h 2.137623 2.13762 l 0.068,5.21832 c 0.0466,3.57956 0.15466,5.21832 0.34403,5.21832 0.15183,0 0.65637,-0.33392 1.1212,-0.74205 0.94656,-0.8311 2.15978,-1.14581 3.64775,-0.94623 1.46024,0.19586 2.202,0.79899 2.95311,2.40116 l 0.66791,1.42474 v 9.17921 c 0,9.09426 -0.005,9.19017 -0.58368,10.36428 -0.78678,1.59742 -1.82201,2.20998 -3.73488,2.20998 -1.22671,0 -1.70496,-0.13451 -2.68252,-0.75446 z m 1.49364,-3.21029 c 0.76771,-0.51261 0.85497,-1.38579 0.85497,-8.55545 0,-4.49494 -0.10227,-7.56546 -0.26781,-8.04031 -0.50699,-1.45434 -2.79097,-1.64595 -3.51408,-0.2948 -0.38327,0.71614 -0.31619,15.63631 0.0725,16.1235 0.66229,0.83014 2.15801,1.23208 2.85444,0.76706 z m -35.945688,3.5456 c -0.09221,-0.0922 -0.167658,-6.64386 -0.167658,-14.55923 0,-12.89124 -0.04147,-14.40749 -0.397796,-14.54422 -0.218787,-0.084 -1.394948,-0.15265 -2.613688,-0.15265 -1.78861,0 -2.245327,-0.0767 -2.36854,-0.3978 -0.222926,-0.58094 -0.179319,-3.69756 0.05694,-4.06976 0.157173,-0.24761 1.924948,-0.30331 7.980803,-0.25149 l 7.778911,0.0666 v 2.26337 2.26337 l -2.375499,0.073 c -1.306523,0.0401 -2.523082,0.19544 -2.703465,0.34515 -0.262659,0.21799 -0.327967,3.14551 -0.327967,14.70179 v 14.4296 h -2.347194 c -1.290958,0 -2.422641,-0.0754 -2.514851,-0.16766 z M 97.25911,130.59161 c 0.650494,-0.32963 1.55448,-1.02275 2.008864,-1.54026 1.642816,-1.87106 1.643426,-1.87516 1.643426,-11.03692 0,-8.15157 -0.0103,-8.31986 -0.57835,-9.47306 -2.205604,-4.47737 -8.365992,-5.25587 -11.388833,-1.43922 -1.41823,1.79066 -1.487504,2.30419 -1.484816,11.00677 0.0025,7.80615 0.01333,7.97636 0.590457,9.21573 1.698168,3.64673 5.675466,5.05766 9.209252,3.26696 z m -4.304505,-4.38169 -0.593701,-0.48075 v -7.66611 c 0,-7.18575 0.03002,-7.69929 0.479077,-8.19549 0.625142,-0.69078 1.986624,-0.70427 2.664487,-0.0264 0.480858,0.48085 0.502971,0.83828 0.502971,8.12943 v 7.62646 l -0.58205,0.5468 c -0.718395,0.6749 -1.68692,0.70079 -2.470784,0.0661 z m 17.904095,4.0156 c 0.61492,-0.40721 1.42926,-0.98249 1.80963,-1.2784 l 0.69158,-0.538 v 0.75486 c 0,1.48415 0.10755,1.55045 2.51485,1.55045 1.78284,0 2.23904,-0.0768 2.36221,-0.39779 0.19938,-0.51959 0.19938,-24.08482 0,-24.60441 -0.22451,-0.58507 -4.4999,-0.58507 -4.72441,0 -0.084,0.21879 -0.15265,4.5546 -0.15265,9.63513 v 9.23733 l -0.69158,0.64503 c -1.44616,1.34883 -2.40588,1.44269 -2.84847,0.2786 -0.12772,-0.33593 -0.23222,-5.02123 -0.23222,-10.41177 v -9.80099 l -2.32624,0.0723 -2.32624,0.0723 v 11.56831 c 0,10.52881 0.0394,11.64039 0.43866,12.37038 0.65978,1.20634 1.37058,1.58705 2.96311,1.58705 1.13293,0 1.6194,-0.14283 2.52177,-0.7404 z m -29.167692,-7.18138 0.143966,-7.54456 2.909273,-9.43069 c 1.600099,-5.18688 2.826773,-9.519888 2.725943,-9.628904 -0.100833,-0.109016 -1.3042,-0.165601 -2.674147,-0.125743 l -2.490817,0.07247 -0.420514,1.634654 c -0.23128,0.899059 -0.8928,3.643393 -1.470041,6.098513 -0.577244,2.45512 -1.141803,4.46386 -1.254579,4.46386 -0.112776,0 -0.621656,-1.7824 -1.130845,-3.96089 -0.509187,-2.17849 -1.17084,-4.92282 -1.470336,-6.098513 l -0.544541,-2.137624 -2.577722,-0.07167 c -2.389748,-0.06644 -2.577723,-0.03683 -2.577723,0.406021 0,0.26273 1.301436,4.784376 2.892079,10.048096 l 2.892079,9.57041 v 7.01977 c 0,3.86088 0.07939,7.09917 0.176424,7.1962 0.09703,0.097 1.200422,0.14419 2.451981,0.10479 l 2.275555,-0.0716 z"
         id="path66"
         inkscape:connector-curvature="0" />
      <path
         style="fill:#e47967;stroke-width:1"
         d="M 32.381699,142.78572 V 78.405525 h 64.380195 64.380196 v 64.380195 64.38019 H 96.761894 32.381699 Z m 83.618811,46.53957 c 8.51078,-0.17037 9.72153,-0.24556 11.06534,-0.6872 4.00875,-1.31745 7.17412,-4.85651 7.92046,-8.85551 0.15188,-0.81383 0.25133,-7.38984 0.24909,-16.47228 -0.004,-16.57618 -0.0432,-17.08905 -1.49673,-19.62959 -0.92962,-1.6248 -2.98292,-3.6724 -4.5234,-4.51083 -2.94816,-1.60459 -1.57826,-1.53961 -32.453376,-1.53961 -30.875112,0 -29.505215,-0.065 -32.453375,1.53961 -1.540485,0.83843 -3.593785,2.88603 -4.523405,4.51083 -1.453546,2.54054 -1.492652,3.05341 -1.496729,19.62959 -0.0023,9.08244 0.09721,15.65845 0.249096,16.47228 0.745462,3.99434 3.892467,7.51649 7.920454,8.86465 1.342526,0.44934 2.424028,0.52218 9.80792,0.66058 12.171189,0.22813 28.845275,0.23547 39.734655,0.0175 z m 4.10001,-8.90768 c -4.25403,-1.17965 -5.14135,-3.92628 -4.92649,-15.24971 0.0936,-4.93157 0.15213,-5.51748 0.66603,-6.66436 1.61149,-3.59635 5.72774,-5.18243 9.22419,-3.55427 2.78173,1.29534 3.42988,3.02054 3.32848,8.85959 l -0.0694,3.99963 -4.27525,0.12574 -4.27525,0.12575 v 3.60595 3.60594 l 0.70561,0.60643 c 0.89624,0.77027 1.96267,0.77481 2.84931,0.0121 0.61434,-0.52843 0.70646,-0.81407 0.83135,-2.57772 l 0.14047,-1.98345 h 2.01188 2.01188 l -0.0116,2.26337 c -0.0143,2.79367 -0.38599,3.93203 -1.71832,5.26238 -1.51725,1.51498 -4.27294,2.17817 -6.49287,1.56258 z m 3.94751,-18.60413 c 0,-2.12375 -0.0314,-2.24974 -0.70561,-2.82921 -0.89953,-0.77315 -1.96252,-0.77498 -2.85777,-0.005 -0.62909,0.54112 -0.70905,0.79364 -0.7959,2.51352 -0.13865,2.74573 -0.17603,2.70285 2.28056,2.61645 l 2.07872,-0.0731 z m -42.094368,18.03343 c -1.297173,-0.90857 -1.350757,-1.38643 -1.48343,-13.2289 -0.09651,-8.61482 -0.05463,-11.08104 0.193233,-11.3797 0.226372,-0.27276 0.806279,-0.3813 2.037206,-0.3813 1.443877,0 1.762644,0.0783 1.981089,0.48643 0.166398,0.31092 0.260333,3.94658 0.260333,10.07594 0,6.12936 0.09393,9.76502 0.260332,10.07594 0.470114,0.87842 2.262642,0.47016 3.386796,-0.77135 0.478739,-0.52872 0.508294,-1.0062 0.628119,-10.14802 l 0.125742,-9.5932 h 2.011882 2.011881 v 12.44851 12.44852 h -2.011881 -2.011882 l -0.07968,-1.00594 c -0.04382,-0.55327 -0.173235,-1.10141 -0.287588,-1.21809 -0.11435,-0.11668 -0.655876,0.19257 -1.203386,0.68721 -1.923977,1.7382 -4.524653,2.41038 -5.818768,1.50395 z m 23.232988,-0.0445 c -0.55327,-0.25942 -1.16126,-0.65936 -1.35109,-0.88876 -0.45662,-0.55177 -1.03802,-0.53184 -1.03802,0.0356 0,0.24897 -0.1358,0.58848 -0.30178,0.75446 -0.39748,0.39748 -3.525693,0.39748 -3.923173,0 -0.436289,-0.43629 -0.436289,-33.16213 0,-33.59842 0.173754,-0.17375 1.005941,-0.30178 1.961583,-0.30178 0.95564,0 1.78783,0.12803 1.96159,0.30178 0.21489,0.2149 0.30178,1.77158 0.30178,5.40693 0,2.80784 0.0634,5.10515 0.14083,5.10515 0.0774,0 0.64746,-0.38684 1.26669,-0.85966 1.30059,-0.99308 2.64612,-1.299 4.05034,-0.92088 1.07817,0.29032 1.77312,0.92576 2.49737,2.28351 0.43469,0.81491 0.46952,1.58914 0.46952,10.43664 0,9.05887 -0.0262,9.60796 -0.50297,10.54614 -0.27663,0.54434 -0.80949,1.21365 -1.18413,1.48736 -0.97247,0.71048 -3.06753,0.81259 -4.34854,0.21194 z m 1.19455,-3.87041 c 0.39901,-0.46146 0.4401,-1.24697 0.4401,-8.41433 v -7.90535 l -0.61728,-0.61728 c -0.76362,-0.76362 -1.84698,-0.80154 -2.74385,-0.0961 l -0.66263,0.52122 v 7.9903 c 0,7.32577 0.037,8.02381 0.44527,8.39326 1.1005,0.99594 2.34418,1.04676 3.13839,0.12824 z m -36.334489,4.02005 c -0.03177,-0.0398 -0.116644,-6.63607 -0.188614,-14.65845 l -0.130855,-14.58614 -2.514852,-0.12574 -2.514851,-0.12574 -0.07371,-2.11609 c -0.05306,-1.52315 0.0174,-2.17389 0.251485,-2.32238 0.42458,-0.26936 14.560464,-0.26936 14.985044,0 0.234074,0.14849 0.304541,0.79923 0.251485,2.32238 l -0.07371,2.11609 -2.514851,0.12574 -2.514851,0.12574 -0.125743,14.58614 -0.125742,14.58614 -2.326238,0.0723 c -1.279431,0.0398 -2.352228,0.0398 -2.383996,0 z m 27.207344,-49.27196 c 1.632647,-0.81584 2.832485,-2.14362 3.449595,-3.81743 0.20117,-0.54564 0.30132,-3.33023 0.31436,-8.7406 0.0213,-8.85969 -0.0587,-9.41173 -1.629769,-11.24724 -2.638064,-3.08198 -7.509615,-3.112 -10.258209,-0.0632 -1.8114,2.00923 -1.798831,1.93096 -1.798831,11.20277 v 8.29901 l 0.668134,1.25743 c 1.353062,2.54646 3.480227,3.86507 6.270412,3.88698 1.087213,0.009 1.763642,-0.16774 2.984308,-0.77772 z m -4.10478,-4.51068 -0.662628,-0.52122 v -7.64225 c 0,-7.53788 0.0075,-7.64925 0.55039,-8.15502 0.738828,-0.68832 1.60233,-0.64627 2.363704,0.1151 l 0.627865,0.62787 -0.07345,7.56791 -0.07346,7.56791 -0.593701,0.48046 c -0.763069,0.61752 -1.315227,0.607 -2.13872,-0.0408 z m 17.083515,4.57254 c 0.56231,-0.2554 1.42601,-0.81875 1.91934,-1.2519 0.49332,-0.43314 0.96689,-0.78754 1.05237,-0.78754 0.0855,0 0.15541,0.37346 0.15541,0.8299 0,0.45645 0.1358,0.96571 0.30179,1.13169 0.34035,0.34035 3.90794,0.4155 4.41591,0.093 0.2492,-0.15821 0.30281,-2.9045 0.25149,-12.88476 l -0.0652,-12.68371 h -2.38911 -2.3891 l -0.12575,9.76705 -0.12574,9.76705 -0.70352,0.60492 c -0.88728,0.76292 -1.83101,1.0096 -2.31757,0.60579 -0.31948,-0.26514 -0.37396,-1.76683 -0.37396,-10.30817 0,-8.27322 -0.0609,-10.04834 -0.35285,-10.29067 -0.22379,-0.18572 -1.1207,-0.26598 -2.45198,-0.2194 l -2.09913,0.0734 -0.0654,11.52629 c -0.0624,10.99404 -0.0426,11.57792 0.42932,12.64473 0.78833,1.78214 2.80772,2.34791 4.93373,1.38228 z m -28.568851,-0.26251 c 0.161629,-0.30201 0.260332,-3.14955 0.260332,-7.51047 v -7.02404 l 2.907332,-9.62089 c 1.599033,-5.29148 2.847435,-9.776963 2.77423,-9.967736 -0.100061,-0.260752 -0.712548,-0.345904 -2.467235,-0.343008 -1.283771,0.0021 -2.483652,0.09866 -2.666404,0.214529 -0.182749,0.115873 -0.948046,2.793867 -1.700658,5.951095 -1.333882,5.59568 -1.486503,6.11274 -1.731865,5.86738 -0.06504,-0.065 -0.729131,-2.69917 -1.47575,-5.85361 -0.780997,-3.299684 -1.505071,-5.828817 -1.705006,-5.955445 -0.590523,-0.374006 -4.995234,-0.28133 -5.14473,0.108246 -0.07092,0.184825 1.200583,4.683269 2.825569,9.996539 l 2.954523,9.66048 0.08272,7.16733 c 0.0455,3.94203 0.13201,7.30879 0.192253,7.48168 0.07668,0.22007 0.788092,0.31436 2.371945,0.31436 1.979397,0 2.294978,-0.0609 2.522746,-0.48644 z"
         id="path64"
         inkscape:connector-curvature="0" />
      <path
         style="fill:#e16a56;stroke-width:1"
         d="M 32.381699,142.78572 V 78.405525 h 64.380195 64.380196 v 64.380195 64.38019 H 96.761894 32.381699 Z m 93.265701,46.29044 c 3.15399,-0.57814 6.25172,-2.73491 7.93863,-5.52723 1.68401,-2.78751 1.65338,-2.41404 1.65037,-20.1242 -0.003,-17.06613 0.008,-16.89782 -1.26652,-19.41139 -1.34414,-2.65072 -3.96532,-4.87346 -6.87783,-5.83237 -1.42358,-0.46869 -2.58111,-0.52363 -15.93263,-0.75612 -9.56881,-0.16663 -19.226242,-0.16663 -28.79505,0 -13.351525,0.23249 -14.509053,0.28743 -15.932635,0.75612 -2.912512,0.95891 -5.533686,3.18165 -6.877826,5.83237 -1.274595,2.51357 -1.263613,2.34526 -1.26652,19.41139 -0.003,17.71016 -0.03364,17.33669 1.650366,20.1242 1.007588,1.66784 2.88407,3.48816 4.385252,4.25401 2.403889,1.22637 2.952237,1.32226 8.673542,1.51673 7.737646,0.26302 50.978551,0.063 52.650851,-0.24351 z m -6.25184,-8.89801 c -1.47057,-0.46611 -3.09917,-2.31732 -3.5958,-4.08731 -0.6084,-2.16829 -0.63246,-15.17275 -0.0318,-17.19532 1.12689,-3.79465 5.90993,-5.64234 9.6388,-3.72346 2.35714,1.213 3.04228,3.1629 3.04228,8.65831 v 3.85238 h -4.09921 c -2.85295,0 -4.19095,0.0917 -4.40099,0.30178 -0.40611,0.40612 -0.41386,6.56242 -0.009,7.32218 0.16091,0.30212 0.47213,0.68717 0.69159,0.85566 0.42941,0.32969 1.73743,0.42025 2.39963,0.16614 0.70772,-0.27158 1.14295,-1.50015 1.14295,-3.22634 l 1e-5,-1.64714 h 2.17485 2.17485 l -0.14865,2.29442 c -0.30169,4.65668 -2.39222,6.80282 -6.5589,6.73337 -0.84709,-0.0141 -1.93625,-0.15122 -2.42036,-0.30467 z m 4.47643,-16.06649 c 0.18262,-0.18262 0.30178,-1.06872 0.30178,-2.24407 0,-1.72266 -0.0736,-2.02979 -0.65106,-2.71604 -0.51791,-0.6155 -0.84767,-0.77375 -1.6123,-0.77375 -0.76463,0 -1.0944,0.15825 -1.6123,0.77375 -0.57745,0.68625 -0.65107,0.99338 -0.65107,2.71604 0,1.17535 0.11916,2.06145 0.30178,2.24407 0.39748,0.39748 3.52569,0.39748 3.92317,0 z m -41.728623,15.76599 c -1.415949,-0.76938 -1.476522,-1.32662 -1.476522,-13.58316 v -11.186 h 2.011881 2.011881 v 9.66581 c 0,5.51128 0.102918,9.9365 0.239447,10.2956 0.55125,1.4499 2.239405,1.29516 3.607444,-0.33067 l 0.679842,-0.80794 v -9.37761 -9.37761 l 1.823267,-0.13332 c 1.080828,-0.079 1.952249,-0.0282 2.140018,0.12473 0.248384,0.20236 0.302665,2.87003 0.251485,12.35944 l -0.06526,12.10137 -2.074753,0.073 -2.074752,0.073 v -1.00127 c 0,-0.5507 -0.109416,-1.0689 -0.243146,-1.15154 -0.133727,-0.0827 -0.866105,0.35713 -1.627501,0.9773 -1.942801,1.58243 -3.803084,2.03962 -5.203326,1.27878 z m 23.671993,0.0986 c -0.48411,-0.14153 -1.31682,-0.6041 -1.85047,-1.02793 -1.0079,-0.8005 -1.40568,-0.69771 -1.41499,0.36563 -0.003,0.38214 -0.26877,0.4401 -2.01573,0.4401 h -2.01188 v -16.84951 -16.8495 h 2.01188 2.01188 l 0.004,5.09257 c 0.002,2.80092 0.0999,5.24409 0.21727,5.42929 0.16642,0.26255 0.40098,0.17373 1.06496,-0.40322 1.25375,-1.08942 1.86547,-1.34455 3.2495,-1.35527 1.67348,-0.0129 2.70338,0.62741 3.50097,2.17685 l 0.63969,1.24266 v 9.31202 c 0,9.01465 -0.0174,9.3496 -0.5438,10.48872 -0.80385,1.73939 -2.80879,2.5382 -4.86313,1.93759 z m 0.44397,-3.742 c 0.29634,-0.27609 0.60756,-0.87023 0.69159,-1.3203 0.084,-0.45008 0.11754,-4.04362 0.0745,-7.98565 -0.0854,-7.81384 -0.12761,-8.04781 -1.54067,-8.5404 -0.87544,-0.30518 -2.25637,0.19088 -2.66693,0.95803 -0.41095,0.76786 -0.37178,15.65335 0.0426,16.19968 0.40978,0.54024 1.68368,1.1871 2.34169,1.18906 0.28513,7.6e-4 0.76088,-0.22434 1.05723,-0.50042 z m -36.15486,-10.7969 c 0,-12.67986 -0.04518,-14.36188 -0.395192,-14.71188 -0.303618,-0.30362 -0.946987,-0.3952 -2.776506,-0.3952 h -2.381316 l 0.07304,-2.07475 0.07304,-2.07475 7.733168,-0.0665 7.733168,-0.0665 v 2.14126 2.14125 H 77.79273 c -1.820275,0 -2.462958,0.0918 -2.766337,0.3952 -0.350009,0.35 -0.395191,2.03202 -0.395191,14.71188 v 14.31669 H 72.367836 70.10447 Z m 27.034652,-34.56883 c 1.553391,-0.73562 2.688205,-1.90472 3.445038,-3.54914 0.56572,-1.22917 0.57872,-1.43822 0.57872,-9.30495 0,-7.86672 -0.013,-8.07577 -0.57872,-9.30495 -1.718807,-3.73454 -5.864899,-5.30084 -9.423273,-3.55989 -1.511951,0.73973 -2.384743,1.61339 -3.275865,3.27912 -0.532087,0.9946 -0.556798,1.34809 -0.629699,9.00757 -0.04775,5.01674 0.02188,8.33536 0.187784,8.95152 0.536048,1.99073 2.478658,4.09188 4.414827,4.77514 1.409509,0.4974 3.902594,0.35841 5.281188,-0.29442 z m -4.260988,-4.98826 c -0.332358,-0.47451 -0.391487,-1.65448 -0.391487,-7.81257 0,-4.63201 0.09642,-7.43381 0.266775,-7.75212 0.360715,-0.674 1.345395,-1.02128 2.091471,-0.73762 1.025818,0.39001 1.162546,1.38472 1.162546,8.45764 0,7.92677 -0.106924,8.39098 -1.934751,8.39975 -0.547689,0.003 -0.92756,-0.17389 -1.194554,-0.55508 z m 17.301716,4.99138 c 0.45514,-0.19018 1.23033,-0.69943 1.72264,-1.13169 0.49231,-0.43225 1.0148,-0.78591 1.16109,-0.78591 0.14628,0 0.30109,0.42438 0.34402,0.94307 l 0.0781,0.94307 h 2.3891 2.38911 v -12.82575 -12.82574 h -2.38911 -2.3891 l -0.12575,9.63888 -0.12574,9.63887 -0.93937,0.86063 c -0.96963,0.88834 -1.77173,1.09439 -2.12648,0.54627 -0.1119,-0.17289 -0.26004,-4.89767 -0.3292,-10.4995 l -0.12574,-10.18515 -2.25896,-0.0735 c -1.90748,-0.0621 -2.30855,-0.006 -2.57772,0.36242 -0.38764,0.53013 -0.45145,19.59635 -0.0743,22.20571 0.36026,2.49263 1.37405,3.52316 3.47304,3.53039 0.59228,0.002 1.44928,-0.15189 1.90443,-0.34206 z m -28.557361,-0.2075 c 0.220535,-0.22054 0.300907,-2.20092 0.29853,-7.35594 l -0.0032,-7.05416 2.930589,-9.72329 c 1.611811,-5.34781 2.86168,-9.902836 2.777472,-10.122279 -0.125551,-0.327181 -0.601582,-0.398986 -2.645057,-0.398986 -1.691085,0 -2.573194,0.101028 -2.744742,0.314356 -0.139034,0.172896 -0.85353,2.889941 -1.587766,6.037879 -0.734239,3.14793 -1.41981,5.63764 -1.523492,5.53267 -0.103683,-0.10496 -0.774019,-2.68055 -1.489632,-5.72352 -0.715616,-3.04297 -1.41519,-5.674133 -1.554614,-5.847029 -0.171985,-0.213281 -1.054736,-0.314356 -2.745443,-0.314356 -2.015132,0 -2.520474,0.07433 -2.641021,0.388471 -0.08199,0.21366 1.168405,4.768684 2.778654,10.122274 l 2.927725,9.73381 -0.0044,7.05416 c -0.0032,5.15637 0.07676,7.13534 0.297358,7.35594 0.187932,0.18793 1.117711,0.30178 2.464554,0.30178 1.346844,0 2.276622,-0.11385 2.464555,-0.30178 z"
         id="path62"
         inkscape:connector-curvature="0" />
      <path
         style="fill:#db462d;stroke-width:1"
         d="M 32.381699,142.78572 V 78.405525 h 64.380195 64.380196 v 64.380195 64.38019 H 96.761894 32.381699 Z m 81.984151,46.7877 c 12.37603,-0.2161 12.59494,-0.24357 15.38819,-1.93121 2.75911,-1.66702 4.90774,-4.77567 5.49444,-7.9494 0.17152,-0.92786 0.23561,-6.89685 0.18351,-17.09169 -0.0902,-17.63895 -0.015,-16.90583 -2.03811,-19.87494 -1.27105,-1.86534 -3.56335,-3.68981 -5.61778,-4.47123 -2.21749,-0.84345 -6.50503,-0.97876 -31.014206,-0.97876 -24.509178,0 -28.796713,0.13531 -31.014211,0.97876 -2.054425,0.78142 -4.346729,2.60589 -5.617773,4.47123 -2.023143,2.96911 -1.947964,2.23599 -2.038111,19.87494 -0.0521,10.19484 0.012,16.16383 0.183511,17.09169 0.783937,4.2407 4.060029,7.89165 8.308368,9.25903 1.18282,0.38071 2.785602,0.46814 11.065346,0.60361 14.215811,0.2326 24.147056,0.23746 36.716826,0.018 z m 5.9646,-9.33212 c -2.24138,-0.54504 -3.68335,-1.9251 -4.38611,-4.19779 -0.38533,-1.24612 -0.4468,-2.46567 -0.4468,-8.86373 0,-7.21319 0.0161,-7.45366 0.57932,-8.67624 0.75894,-1.64729 1.65247,-2.57039 3.19295,-3.29866 2.52011,-1.19138 6.2975,-0.51541 7.63774,1.3668 1.0853,1.52416 1.28999,2.6338 1.28999,6.99318 v 4.11789 h -4.24834 c -3.64194,0 -4.27013,0.0568 -4.40099,0.3978 -0.084,0.21878 -0.15265,1.75774 -0.15265,3.41991 0,3.34607 0.31427,4.45149 1.40712,4.94942 0.84203,0.38366 1.49199,0.36063 2.35038,-0.0833 0.88188,-0.45604 1.2722,-1.51152 1.2722,-3.44022 v -1.47138 h 1.9204 1.92041 l -0.12387,2.3681 c -0.10553,2.01751 -0.2339,2.56667 -0.8671,3.7094 -0.60533,1.09241 -0.99702,1.46643 -2.1109,2.01559 -1.54964,0.76401 -3.43224,1.03398 -4.83375,0.69318 z m 3.99245,-16.4602 c 0.0873,-0.34779 0.11329,-1.43615 0.0578,-2.41857 -0.0925,-1.63664 -0.16889,-1.84695 -0.91234,-2.51122 -1.06276,-0.94958 -2.0531,-0.94958 -3.11586,0 -0.74346,0.66427 -0.81986,0.87458 -0.91234,2.51122 -0.0555,0.98242 -0.0295,2.07078 0.0578,2.41857 0.15476,0.61662 0.21474,0.63234 2.41249,0.63234 2.19775,0 2.25773,-0.0157 2.41249,-0.63234 z m -42.323427,15.84641 c -1.137666,-0.79685 -1.206885,-1.56126 -1.206885,-13.32793 v -11.06535 h 1.886138 1.886139 l 0.0658,10.04284 c 0.05834,8.90424 0.112653,10.09461 0.479075,10.49951 0.794112,0.87748 2.473861,0.39517 3.700417,-1.06251 l 0.65867,-0.78278 v -9.42242 -9.42241 l 1.823267,0.0739 1.823268,0.0739 v 12.19703 12.19703 l -1.823268,0.0739 -1.823267,0.0739 v -0.87065 c 0,-1.04104 -0.210971,-1.66624 -0.562268,-1.66624 -0.141332,0 -0.707855,0.40735 -1.258935,0.90522 -1.873674,1.69275 -4.401274,2.35646 -5.648149,1.48311 z m 23.571917,0.0982 c -0.34166,-0.13635 -0.97897,-0.5208 -1.41624,-0.85432 -1.13487,-0.86562 -1.43407,-0.86516 -1.59759,0.003 l -0.14219,0.75446 h -1.88367 -1.883667 v -16.72376 -16.72377 h 1.886137 1.88614 l 0.0681,5.27389 c 0.0375,2.90064 0.17466,5.3804 0.30485,5.51059 0.14796,0.14796 0.6546,-0.14848 1.35122,-0.79061 2.18874,-2.01751 4.95235,-1.68148 6.25721,0.7608 0.56244,1.05272 0.56907,1.17656 0.56907,10.62157 0,9.17027 -0.021,9.59709 -0.52023,10.56238 -0.83908,1.62249 -3.03076,2.34404 -4.87918,1.60634 z m 0.98863,-3.5399 c 0.49336,-0.52956 0.51276,-0.84793 0.51276,-8.41292 0,-5.22666 -0.0936,-8.06797 -0.27921,-8.47534 -0.5466,-1.19966 -2.29279,-1.52295 -3.51711,-0.65115 l -0.73041,0.52009 v 8.10808 c 0,6.10866 0.0775,8.20524 0.31436,8.5021 0.86672,1.08639 2.86298,1.30715 3.69961,0.40914 z m -36.333945,3.26409 c -0.06707,-0.17852 -0.150162,-6.77518 -0.184648,-14.65924 l -0.0627,-14.33465 -2.587749,-0.0718 -2.58775,-0.0718 0.0729,-2.06585 0.0729,-2.06584 h 7.418812 7.418811 l 0.0729,2.06584 0.0729,2.06585 -2.587749,0.0718 -2.587749,0.0718 -0.125743,14.58613 -0.125743,14.58614 -2.078718,0.0731 c -1.521563,0.0535 -2.111401,-0.0139 -2.200666,-0.25149 z m 26.426013,-48.1511 c 1.661852,-0.56625 3.648722,-2.55312 4.214972,-4.21497 0.35892,-1.05337 0.42157,-2.40108 0.42157,-9.06941 0,-8.94118 -0.0717,-9.37139 -1.901885,-11.40696 -1.54263,-1.71578 -3.165091,-2.38019 -5.496698,-2.25094 -2.094678,0.11611 -3.375959,0.6671 -4.752596,2.04373 -1.965379,1.96538 -2.047099,2.37142 -2.140212,10.63399 -0.09483,8.41542 0.05281,9.69098 1.33599,11.54256 1.907017,2.75174 5.13333,3.80742 8.318859,2.722 z m -3.355028,-5.2511 c -0.556662,-0.3899 -0.558928,-0.42238 -0.558928,-8.00855 0,-7.0599 0.03364,-7.6475 0.459901,-8.03326 0.621769,-0.5627 1.444234,-0.52395 2.065485,0.0973 0.497669,0.49767 0.511242,0.74646 0.440099,8.06807 -0.0694,7.14201 -0.100064,7.57404 -0.561571,7.91124 -0.630758,0.46087 -1.151332,0.45105 -1.844986,-0.0348 z m 16.34753,5.15812 c 0.51543,-0.14316 1.45005,-0.65178 2.07693,-1.13029 0.62687,-0.4785 1.19538,-0.87001 1.26334,-0.87001 0.068,0 0.12357,0.33553 0.12357,0.74561 0,1.00168 0.57803,1.26627 2.76633,1.26627 3.06052,0 2.76634,1.39964 2.76634,-13.16152 0,-9.49646 -0.0751,-12.71592 -0.30178,-12.94263 -0.40758,-0.40758 -4.52153,-0.40758 -4.92911,0 -0.22404,0.22403 -0.30178,2.74195 -0.30178,9.77362 v 9.47185 l -0.6681,0.6681 c -0.70899,0.70899 -1.64383,1.06449 -2.08394,0.79249 -0.17946,-0.11091 -0.26578,-3.39111 -0.26578,-10.09962 0,-6.36776 -0.0935,-10.11002 -0.26034,-10.42179 -0.2256,-0.42154 -0.5416,-0.48644 -2.36854,-0.48644 -1.15951,0 -2.28721,0.0687 -2.506,0.15265 -0.35479,0.13615 -0.3978,1.40818 -0.3978,11.76652 0,11.54387 0.003,11.62063 0.56584,12.73596 0.87954,1.74416 2.39867,2.3286 4.52082,1.73923 z m -28.052139,-0.18493 c 0.213685,-0.13589 0.322802,-2.26691 0.389332,-7.60357 l 0.09244,-7.41477 2.942847,-9.5992 c 1.618566,-5.27956 2.942846,-9.765889 2.942846,-9.969625 0,-0.555405 -0.562376,-0.675726 -3.158334,-0.675726 -2.178844,0 -2.389999,0.04404 -2.712908,0.565842 -0.19259,0.311213 -0.896032,2.914084 -1.563204,5.784159 -0.667173,2.87007 -1.280789,5.21832 -1.36359,5.21832 -0.0828,0 -0.696051,-2.34825 -1.362776,-5.21832 -0.666727,-2.870075 -1.371942,-5.472946 -1.567149,-5.784159 -0.327084,-0.521463 -0.540231,-0.565842 -2.717664,-0.565842 -2.568828,0 -3.158334,0.121556 -3.158334,0.651244 0,0.19027 1.326433,4.676607 2.947632,9.969627 l 2.947629,9.62368 0.0845,7.41281 c 0.06141,5.38773 0.166465,7.46493 0.384546,7.60358 0.388756,0.24716 4.484043,0.2488 4.872192,0.002 z"
         id="path60"
         inkscape:connector-curvature="0" />
    </g>
  </g>
</svg>
